<svg width="101" height="100" viewBox="0 0 101 100" fill="none" xmlns="http://www.w3.org/2000/svg">
<path d="M32.7266 17.5774H21.0078C19.3898 17.5774 18.0781 18.8891 18.0781 20.5071C18.0781 22.125 19.3898 23.4368 21.0078 23.4368H32.7266C34.3445 23.4368 35.6562 22.125 35.6562 20.5071C35.6562 18.8891 34.3445 17.5774 32.7266 17.5774Z" fill="white"/>
<path d="M32.7266 35.1555H21.0078C19.3898 35.1555 18.0781 36.4672 18.0781 38.0852C18.0781 39.7032 19.3898 41.0149 21.0078 41.0149H32.7266C34.3445 41.0149 35.6562 39.7032 35.6562 38.0852C35.6562 36.4672 34.3445 35.1555 32.7266 35.1555Z" fill="white"/>
<path d="M38.9766 53.1243H21.0078C19.3898 53.1243 18.0781 54.436 18.0781 56.054C18.0781 57.6719 19.3898 58.9836 21.0078 58.9836H38.9766C40.5945 58.9836 41.9062 57.6719 41.9062 56.054C41.9062 54.436 40.5945 53.1243 38.9766 53.1243Z" fill="white"/>
<path d="M74.1328 70.7024H21.0078C19.3898 70.7024 18.0781 72.0141 18.0781 73.6321C18.0781 75.25 19.3898 76.5618 21.0078 76.5618H74.1328C75.7508 76.5618 77.0625 75.25 77.0625 73.6321C77.0625 72.0141 75.7508 70.7024 74.1328 70.7024Z" fill="white"/>
<path d="M85.8516 -0.000732422H15.1484C10.3021 -0.000732422 6.35938 3.94204 6.35938 8.78833V82.4211H3.42969C1.81172 82.4211 0.5 83.7329 0.5 85.3508V88.2805C0.5 94.7422 5.75703 99.9993 12.2188 99.9993H77.0625C83.5242 99.9993 88.7812 94.7422 88.7812 88.2805V23.4368H97.5703C99.1883 23.4368 100.5 22.125 100.5 20.5071V14.6477C100.5 6.57056 93.9287 -0.000732422 85.8516 -0.000732422ZM12.2188 94.1399C8.98789 94.1399 6.35938 91.5114 6.35938 88.2805H65.3438C65.3438 90.4133 65.9168 92.4153 66.9164 94.1399H12.2188ZM82.9219 20.5071V88.2805C82.9219 91.5114 80.2934 94.1399 77.0625 94.1399C73.8316 94.1399 71.2031 91.5114 71.2031 88.2805V85.3508C71.2031 83.7329 69.8914 82.4211 68.2734 82.4211H12.2188V8.78833C12.2188 7.1729 13.533 5.85864 15.1484 5.85864H82.9219V20.5071ZM94.6406 17.5774H88.7812V6.3606C92.1916 7.56978 94.6406 10.8282 94.6406 14.6477V17.5774Z" fill="white"/>
<path d="M59.4844 11.718C49.7918 11.718 41.9062 19.6036 41.9062 29.2961C41.9062 34.4905 44.1717 39.1651 47.7656 42.386V61.9133C47.7656 62.9938 48.3604 63.9866 49.3129 64.4963C50.2654 65.0061 51.4215 64.9502 52.3203 64.351L59.4844 59.5751L66.6484 64.351C67.1387 64.6778 67.7053 64.843 68.2736 64.843C68.7477 64.843 69.2227 64.7282 69.6559 64.4963C70.6084 63.9866 71.2031 62.9938 71.2031 61.9133V42.386C74.7971 39.1651 77.0625 34.4905 77.0625 29.2961C77.0625 19.6036 69.177 11.718 59.4844 11.718ZM65.3438 56.4391L61.1094 53.6163C60.1252 52.9604 58.8434 52.9604 57.8592 53.6163L53.625 56.4391V45.8688C55.4586 46.519 57.4307 46.8743 59.4844 46.8743C61.5381 46.8743 63.5102 46.519 65.3438 45.8688V56.4391ZM59.4844 41.0149C53.0227 41.0149 47.7656 35.7579 47.7656 29.2961C47.7656 22.8344 53.0227 17.5774 59.4844 17.5774C65.9461 17.5774 71.2031 22.8344 71.2031 29.2961C71.2031 35.7579 65.9461 41.0149 59.4844 41.0149Z" fill="#D1DB5C"/>
</svg>
