<svg width="101" height="100" viewBox="0 0 101 100" fill="none" xmlns="http://www.w3.org/2000/svg">
<path d="M32.7266 17.5781H21.0078C19.3898 17.5781 18.0781 18.8898 18.0781 20.5078C18.0781 22.1258 19.3898 23.4375 21.0078 23.4375H32.7266C34.3445 23.4375 35.6562 22.1258 35.6562 20.5078C35.6562 18.8898 34.3445 17.5781 32.7266 17.5781Z" fill="#046F6D"/>
<path d="M32.7266 35.1562H21.0078C19.3898 35.1562 18.0781 36.468 18.0781 38.0859C18.0781 39.7039 19.3898 41.0156 21.0078 41.0156H32.7266C34.3445 41.0156 35.6562 39.7039 35.6562 38.0859C35.6562 36.468 34.3445 35.1562 32.7266 35.1562Z" fill="#046F6D"/>
<path d="M38.9766 53.125H21.0078C19.3898 53.125 18.0781 54.4367 18.0781 56.0547C18.0781 57.6727 19.3898 58.9844 21.0078 58.9844H38.9766C40.5945 58.9844 41.9062 57.6727 41.9062 56.0547C41.9062 54.4367 40.5945 53.125 38.9766 53.125Z" fill="#046F6D"/>
<path d="M74.1328 70.7031H21.0078C19.3898 70.7031 18.0781 72.0148 18.0781 73.6328C18.0781 75.2508 19.3898 76.5625 21.0078 76.5625H74.1328C75.7508 76.5625 77.0625 75.2508 77.0625 73.6328C77.0625 72.0148 75.7508 70.7031 74.1328 70.7031Z" fill="#046F6D"/>
<path d="M85.8516 0H15.1484C10.3021 0 6.35938 3.94277 6.35938 8.78906V82.4219H3.42969C1.81172 82.4219 0.5 83.7336 0.5 85.3516V88.2812C0.5 94.743 5.75703 100 12.2188 100H77.0625C83.5242 100 88.7812 94.743 88.7812 88.2812V23.4375H97.5703C99.1883 23.4375 100.5 22.1258 100.5 20.5078V14.6484C100.5 6.57129 93.9287 0 85.8516 0ZM12.2188 94.1406C8.98789 94.1406 6.35938 91.5121 6.35938 88.2812H65.3438C65.3438 90.4141 65.9168 92.416 66.9164 94.1406H12.2188ZM82.9219 20.5078V88.2812C82.9219 91.5121 80.2934 94.1406 77.0625 94.1406C73.8316 94.1406 71.2031 91.5121 71.2031 88.2812V85.3516C71.2031 83.7336 69.8914 82.4219 68.2734 82.4219H12.2188V8.78906C12.2188 7.17363 13.533 5.85938 15.1484 5.85938H82.9219V20.5078ZM94.6406 17.5781H88.7812V6.36133C92.1916 7.57051 94.6406 10.8289 94.6406 14.6484V17.5781Z" fill="#046F6D"/>
<path d="M59.4844 11.7188C49.7918 11.7188 41.9062 19.6043 41.9062 29.2969C41.9062 34.4912 44.1717 39.1658 47.7656 42.3867V61.9141C47.7656 62.9945 48.3604 63.9873 49.3129 64.4971C50.2654 65.0068 51.4215 64.951 52.3203 64.3518L59.4844 59.5758L66.6484 64.3518C67.1387 64.6785 67.7053 64.8438 68.2736 64.8438C68.7477 64.8438 69.2227 64.7289 69.6559 64.4971C70.6084 63.9873 71.2031 62.9945 71.2031 61.9141V42.3867C74.7971 39.1658 77.0625 34.4912 77.0625 29.2969C77.0625 19.6043 69.177 11.7188 59.4844 11.7188ZM65.3438 56.4398L61.1094 53.617C60.1252 52.9611 58.8434 52.9611 57.8592 53.617L53.625 56.4398V45.8695C55.4586 46.5197 57.4307 46.875 59.4844 46.875C61.5381 46.875 63.5102 46.5197 65.3438 45.8695V56.4398ZM59.4844 41.0156C53.0227 41.0156 47.7656 35.7586 47.7656 29.2969C47.7656 22.8352 53.0227 17.5781 59.4844 17.5781C65.9461 17.5781 71.2031 22.8352 71.2031 29.2969C71.2031 35.7586 65.9461 41.0156 59.4844 41.0156Z" fill="#D1DB5C"/>
</svg>
