<svg width="25" height="24" viewBox="0 0 25 24" fill="none" xmlns="http://www.w3.org/2000/svg">
<path d="M12.923 21.4362C12.7922 21.4362 12.6606 21.4047 12.5398 21.3426C11.1889 20.638 9.6879 20.2701 8.16433 20.2701C6.64076 20.2701 5.13973 20.638 3.78888 21.3426C3.66265 21.4081 3.52171 21.4399 3.37961 21.4352C3.23751 21.4304 3.09903 21.3892 2.97745 21.3155C2.85587 21.2418 2.75529 21.138 2.68536 21.0142C2.61543 20.8905 2.5785 20.7508 2.57813 20.6086V4.88444C2.57812 4.75095 2.6104 4.61944 2.67222 4.50113C2.73405 4.38282 2.82357 4.28122 2.93316 4.205C6.06226 2.02762 10.2664 2.02762 13.3963 4.205C13.6181 4.35975 13.7505 4.61382 13.7505 4.88444V20.6086C13.7505 20.8281 13.6633 21.0386 13.5081 21.1938C13.3529 21.349 13.1424 21.4362 12.923 21.4362ZM8.16433 18.6149C9.49675 18.6149 10.83 18.8541 12.0954 19.3324V5.33134C10.9115 4.6088 9.55131 4.22653 8.16433 4.22653C6.77735 4.22653 5.41721 4.6088 4.2333 5.33134V19.3324C5.48956 18.8579 6.82141 18.6148 8.16433 18.6149Z" fill="#808191"/>
<path d="M22.4386 21.4362C22.3078 21.4362 22.1762 21.4047 22.0554 21.3426C20.7046 20.638 19.2035 20.2701 17.68 20.2701C16.1564 20.2701 14.6554 20.638 13.3045 21.3426C13.1783 21.4081 13.0373 21.4399 12.8952 21.4352C12.7531 21.4304 12.6147 21.3892 12.4931 21.3155C12.3715 21.2418 12.2709 21.138 12.201 21.0142C12.1311 20.8905 12.0941 20.7508 12.0938 20.6086V4.88444C12.0937 4.75095 12.126 4.61944 12.1878 4.50113C12.2497 4.38282 12.3392 4.28122 12.4488 4.205C15.5779 2.02762 19.782 2.02762 22.912 4.205C23.1338 4.35975 23.2662 4.61382 23.2662 4.88444V20.6086C23.2662 20.8281 23.179 21.0386 23.0238 21.1938C22.8686 21.349 22.6581 21.4362 22.4386 21.4362ZM17.68 18.6149C19.0124 18.6149 20.3456 18.8541 21.611 19.3324V5.33134C20.4271 4.6088 19.0669 4.22653 17.68 4.22653C16.293 4.22653 14.9328 4.6088 13.7489 5.33134V19.3324C15.0052 18.8579 16.337 18.6148 17.68 18.6149Z" fill="#808191"/>
</svg>
