<svg width="48" height="48" viewBox="0 0 48 48" fill="none" xmlns="http://www.w3.org/2000/svg">
<path d="M36.9297 14.1598V13.6798C36.9297 12.0958 35.6337 10.7998 34.0497 10.7998H30.8097C29.2257 10.7998 27.9297 12.0958 27.9297 13.6798V14.1598H36.9297Z" fill="#A4ABB1"/>
<path d="M39.8381 14.1602H22.0781V41.0402H42.7181V17.0402C42.7181 15.4562 41.4221 14.1602 39.8381 14.1602Z" fill="#DADEE0"/>
<path d="M22.0983 14.1602H22.0781V41.0402H42.7181V34.7406L22.0983 14.1602Z" fill="#C7CED2"/>
<path d="M44.3989 41.04H3.59891C3.40795 41.04 3.22482 41.1159 3.08979 41.2509C2.95476 41.3859 2.87891 41.5691 2.87891 41.76C2.87891 41.951 2.95476 42.1341 3.08979 42.2692C3.22482 42.4042 3.40795 42.48 3.59891 42.48H44.3989C44.5899 42.48 44.773 42.4042 44.908 42.2692C45.0431 42.1341 45.1189 41.951 45.1189 41.76C45.1189 41.5691 45.0431 41.3859 44.908 41.2509C44.773 41.1159 44.5899 41.04 44.3989 41.04Z" fill="#7D8790"/>
<path d="M22.0812 41.04V8.40002C22.0812 6.81602 20.7852 5.52002 19.2013 5.52002H8.16125C6.57725 5.52002 5.28125 6.81602 5.28125 8.40002V41.04H22.0812Z" fill="#1BB7EA"/>
<path d="M10.0794 36.0001H17.2794C17.4703 36.0001 17.6535 35.9242 17.7885 35.7892C17.9235 35.6542 17.9994 35.471 17.9994 35.2801C17.9994 35.0891 17.9235 34.906 17.7885 34.7709C17.6535 34.6359 17.4703 34.5601 17.2794 34.5601H10.0794C9.88842 34.5601 9.70528 34.6359 9.57026 34.7709C9.43523 34.906 9.35938 35.0891 9.35938 35.2801C9.35938 35.471 9.43523 35.6542 9.57026 35.7892C9.70528 35.9242 9.88842 36.0001 10.0794 36.0001ZM10.0794 31.2001H17.2794C17.4703 31.2001 17.6535 31.1242 17.7885 30.9892C17.9235 30.8542 17.9994 30.671 17.9994 30.4801C17.9994 30.2891 17.9235 30.106 17.7885 29.9709C17.6535 29.8359 17.4703 29.7601 17.2794 29.7601H10.0794C9.88842 29.7601 9.70528 29.8359 9.57026 29.9709C9.43523 30.106 9.35938 30.2891 9.35938 30.4801C9.35938 30.671 9.43523 30.8542 9.57026 30.9892C9.70528 31.1242 9.88842 31.2001 10.0794 31.2001ZM10.0794 26.4001H17.2794C17.4703 26.4001 17.6535 26.3242 17.7885 26.1892C17.9235 26.0542 17.9994 25.871 17.9994 25.6801C17.9994 25.4891 17.9235 25.306 17.7885 25.1709C17.6535 25.0359 17.4703 24.9601 17.2794 24.9601H10.0794C9.88842 24.9601 9.70528 25.0359 9.57026 25.1709C9.43523 25.306 9.35938 25.4891 9.35938 25.6801C9.35938 25.871 9.43523 26.0542 9.57026 26.1892C9.70528 26.3242 9.88842 26.4001 10.0794 26.4001ZM10.0794 21.6001H17.2794C17.4703 21.6001 17.6535 21.5242 17.7885 21.3892C17.9235 21.2542 17.9994 21.071 17.9994 20.8801C17.9994 20.6891 17.9235 20.506 17.7885 20.3709C17.6535 20.2359 17.4703 20.1601 17.2794 20.1601H10.0794C9.88842 20.1601 9.70528 20.2359 9.57026 20.3709C9.43523 20.506 9.35938 20.6891 9.35938 20.8801C9.35938 21.071 9.43523 21.2542 9.57026 21.3892C9.70528 21.5242 9.88842 21.6001 10.0794 21.6001ZM10.0794 16.8001H17.2794C17.4703 16.8001 17.6535 16.7242 17.7885 16.5892C17.9235 16.4542 17.9994 16.271 17.9994 16.0801C17.9994 15.8891 17.9235 15.706 17.7885 15.5709C17.6535 15.4359 17.4703 15.3601 17.2794 15.3601H10.0794C9.88842 15.3601 9.70528 15.4359 9.57026 15.5709C9.43523 15.706 9.35938 15.8891 9.35938 16.0801C9.35938 16.271 9.43523 16.4542 9.57026 16.5892C9.70528 16.7242 9.88842 16.8001 10.0794 16.8001ZM10.0794 12.0001H17.2794C17.3739 12.0001 17.4676 11.9814 17.5549 11.9453C17.6423 11.9091 17.7216 11.856 17.7885 11.7892C17.8554 11.7223 17.9084 11.6429 17.9446 11.5556C17.9808 11.4682 17.9994 11.3746 17.9994 11.2801C17.9994 11.1855 17.9808 11.0919 17.9446 11.0045C17.9084 10.9172 17.8554 10.8378 17.7885 10.7709C17.7216 10.7041 17.6423 10.651 17.5549 10.6149C17.4676 10.5787 17.3739 10.5601 17.2794 10.5601H10.0794C9.98482 10.5601 9.8912 10.5787 9.80384 10.6149C9.71649 10.651 9.63712 10.7041 9.57026 10.7709C9.5034 10.8378 9.45037 10.9172 9.41418 11.0045C9.378 11.0919 9.35938 11.1855 9.35938 11.2801C9.35938 11.3746 9.378 11.4682 9.41418 11.5556C9.45037 11.6429 9.5034 11.7223 9.57026 11.7892C9.63712 11.856 9.71649 11.9091 9.80384 11.9453C9.8912 11.9814 9.98482 12.0001 10.0794 12.0001ZM25.9194 36.0001H29.2794C29.4703 36.0001 29.6535 35.9242 29.7885 35.7892C29.9235 35.6542 29.9994 35.471 29.9994 35.2801C29.9994 35.0891 29.9235 34.906 29.7885 34.7709C29.6535 34.6359 29.4703 34.5601 29.2794 34.5601H25.9194C25.7284 34.5601 25.5453 34.6359 25.4103 34.7709C25.2752 34.906 25.1994 35.0891 25.1994 35.2801C25.1994 35.471 25.2752 35.6542 25.4103 35.7892C25.5453 35.9242 25.7284 36.0001 25.9194 36.0001ZM25.9194 31.2001H29.2794C29.4703 31.2001 29.6535 31.1242 29.7885 30.9892C29.9235 30.8542 29.9994 30.671 29.9994 30.4801C29.9994 30.2891 29.9235 30.106 29.7885 29.9709C29.6535 29.8359 29.4703 29.7601 29.2794 29.7601H25.9194C25.7284 29.7601 25.5453 29.8359 25.4103 29.9709C25.2752 30.106 25.1994 30.2891 25.1994 30.4801C25.1994 30.671 25.2752 30.8542 25.4103 30.9892C25.5453 31.1242 25.7284 31.2001 25.9194 31.2001ZM25.9194 26.4001H29.2794C29.4703 26.4001 29.6535 26.3242 29.7885 26.1892C29.9235 26.0542 29.9994 25.871 29.9994 25.6801C29.9994 25.4891 29.9235 25.306 29.7885 25.1709C29.6535 25.0359 29.4703 24.9601 29.2794 24.9601H25.9194C25.7284 24.9601 25.5453 25.0359 25.4103 25.1709C25.2752 25.306 25.1994 25.4891 25.1994 25.6801C25.1994 25.871 25.2752 26.0542 25.4103 26.1892C25.5453 26.3242 25.7284 26.4001 25.9194 26.4001ZM25.9194 21.6001H29.2794C29.4703 21.6001 29.6535 21.5242 29.7885 21.3892C29.9235 21.2542 29.9994 21.071 29.9994 20.8801C29.9994 20.6891 29.9235 20.506 29.7885 20.3709C29.6535 20.2359 29.4703 20.1601 29.2794 20.1601H25.9194C25.7284 20.1601 25.5453 20.2359 25.4103 20.3709C25.2752 20.506 25.1994 20.6891 25.1994 20.8801C25.1994 21.071 25.2752 21.2542 25.4103 21.3892C25.5453 21.5242 25.7284 21.6001 25.9194 21.6001ZM33.5994 36.0001H36.9594C37.1503 36.0001 37.3335 35.9242 37.4685 35.7892C37.6035 35.6542 37.6794 35.471 37.6794 35.2801C37.6794 35.0891 37.6035 34.906 37.4685 34.7709C37.3335 34.6359 37.1503 34.5601 36.9594 34.5601H33.5994C33.4084 34.5601 33.2253 34.6359 33.0903 34.7709C32.9552 34.906 32.8794 35.0891 32.8794 35.2801C32.8794 35.471 32.9552 35.6542 33.0903 35.7892C33.2253 35.9242 33.4084 36.0001 33.5994 36.0001ZM33.5994 31.2001H36.9594C37.1503 31.2001 37.3335 31.1242 37.4685 30.9892C37.6035 30.8542 37.6794 30.671 37.6794 30.4801C37.6794 30.2891 37.6035 30.106 37.4685 29.9709C37.3335 29.8359 37.1503 29.7601 36.9594 29.7601H33.5994C33.4084 29.7601 33.2253 29.8359 33.0903 29.9709C32.9552 30.106 32.8794 30.2891 32.8794 30.4801C32.8794 30.671 32.9552 30.8542 33.0903 30.9892C33.2253 31.1242 33.4084 31.2001 33.5994 31.2001ZM33.5994 26.4001H36.9594C37.1503 26.4001 37.3335 26.3242 37.4685 26.1892C37.6035 26.0542 37.6794 25.871 37.6794 25.6801C37.6794 25.4891 37.6035 25.306 37.4685 25.1709C37.3335 25.0359 37.1503 24.9601 36.9594 24.9601H33.5994C33.4084 24.9601 33.2253 25.0359 33.0903 25.1709C32.9552 25.306 32.8794 25.4891 32.8794 25.6801C32.8794 25.871 32.9552 26.0542 33.0903 26.1892C33.2253 26.3242 33.4084 26.4001 33.5994 26.4001ZM33.5994 21.6001H36.9594C37.1503 21.6001 37.3335 21.5242 37.4685 21.3892C37.6035 21.2542 37.6794 21.071 37.6794 20.8801C37.6794 20.6891 37.6035 20.506 37.4685 20.3709C37.3335 20.2359 37.1503 20.1601 36.9594 20.1601H33.5994C33.4084 20.1601 33.2253 20.2359 33.0903 20.3709C32.9552 20.506 32.8794 20.6891 32.8794 20.8801C32.8794 21.071 32.9552 21.2542 33.0903 21.3892C33.2253 21.5242 33.4084 21.6001 33.5994 21.6001Z" fill="#1F4254"/>
</svg>
