<svg width="46" height="46" viewBox="0 0 46 46" fill="none" xmlns="http://www.w3.org/2000/svg">
<path opacity="0.4" d="M31.0295 3.83325H14.987C7.9912 3.83325 3.83203 7.99241 3.83203 14.9691V31.0116C3.83203 37.9883 7.99119 42.1474 14.9679 42.1474H31.0104C37.987 42.1474 42.1462 37.9883 42.1462 31.0116V14.9691C42.1654 7.99241 38.0062 3.83325 31.0295 3.83325Z" fill="#046F6D"/>
<path d="M21.9833 28.8267C22.1174 28.9609 22.2708 29.0567 22.4433 29.1334C22.6158 29.21 22.8074 29.2484 22.9991 29.2484C23.1908 29.2484 23.3633 29.21 23.5549 29.1334C23.7274 29.0567 23.8808 28.9609 24.0149 28.8267L29.7649 23.0767C30.3208 22.5209 30.3208 21.6009 29.7649 21.045C29.2091 20.4892 28.2891 20.4892 27.7333 21.045L24.4366 24.3417V12.4775C24.4366 11.6917 23.7849 11.04 22.9991 11.04C22.2133 11.04 21.5616 11.6917 21.5616 12.4775V24.3417L18.2649 21.045C17.7091 20.4892 16.7891 20.4892 16.2333 21.045C15.6774 21.6009 15.6774 22.5209 16.2333 23.0767L21.9833 28.8267Z" fill="#046F6D"/>
<path d="M35.8615 31.2033C35.6123 30.4558 34.8073 30.0533 34.0406 30.3025C26.9106 32.6792 19.0715 32.6792 11.9415 30.3025C11.194 30.0533 10.3698 30.4558 10.1206 31.2033C9.87146 31.9508 10.274 32.775 11.0215 33.0242C14.874 34.3084 18.9181 34.96 22.9815 34.96C27.0448 34.96 31.089 34.3084 34.9415 33.0242C35.7081 32.7559 36.1106 31.9508 35.8615 31.2033Z" fill="#046F6D"/>
</svg>
