<svg width="46" height="46" viewBox="0 0 46 46" fill="none" xmlns="http://www.w3.org/2000/svg">
<path d="M11.5013 24.9167C6.2113 24.9167 1.91797 29.1909 1.91797 34.5001C1.91797 39.8092 6.2113 44.0834 11.5013 44.0834C16.7913 44.0834 21.0846 39.7901 21.0846 34.5001C21.0846 29.2101 16.8105 24.9167 11.5013 24.9167ZM7.59129 30.5901H11.5013C12.2296 30.5901 12.8046 31.1842 12.8046 31.8934C12.8046 32.6026 12.2105 33.1968 11.5013 33.1968H7.59129C6.86295 33.1968 6.28797 32.6026 6.28797 31.8934C6.28797 31.1842 6.86295 30.5901 7.59129 30.5901ZM15.4113 38.4101H7.57216C6.84383 38.4101 6.26878 37.8159 6.26878 37.1067C6.26878 36.3976 6.86299 35.8034 7.57216 35.8034H15.4113C16.1397 35.8034 16.7146 36.3976 16.7146 37.1067C16.7146 37.8159 16.1397 38.4101 15.4113 38.4101Z" fill="#046F6D"/>
<path opacity="0.4" d="M32.582 5.75H13.4154C7.66536 5.75 3.83203 8.625 3.83203 15.3333V21.3517C3.83203 22.7508 5.26956 23.6325 6.55372 23.0767C8.66206 22.1567 11.0578 21.8117 13.5687 22.2142C18.5903 23.0383 22.692 27.0058 23.7079 31.9892C23.9954 33.4458 24.0337 34.8642 23.842 36.225C23.6887 37.3558 24.6087 38.3525 25.7395 38.3525H32.582C38.332 38.3525 42.1654 35.4775 42.1654 28.7692V15.3525C42.1654 8.62499 38.332 5.75 32.582 5.75Z" fill="#046F6D"/>
<path d="M22.9987 22.7509C21.3887 22.7509 19.7595 22.2526 18.5137 21.2368L12.5145 16.4451C11.9012 15.9468 11.7862 15.0459 12.2845 14.4326C12.7829 13.8193 13.6837 13.7043 14.297 14.2026L20.2962 18.9943C21.7528 20.1634 24.2253 20.1634 25.682 18.9943L31.6812 14.2026C32.2945 13.7043 33.2145 13.8001 33.6937 14.4326C34.192 15.0459 34.0962 15.9659 33.4637 16.4451L27.4645 21.2368C26.2378 22.2526 24.6087 22.7509 22.9987 22.7509Z" fill="#046F6D"/>
</svg>
