<svg width="28" height="27" viewBox="0 0 28 27" fill="none" xmlns="http://www.w3.org/2000/svg">
<path d="M17.9752 13.1951C17.9752 15.3573 16.228 17.1046 14.0657 17.1046C11.9035 17.1046 10.1562 15.3573 10.1562 13.1951C10.1562 11.0329 11.9035 9.28564 14.0657 9.28564C16.228 9.28564 17.9752 11.0329 17.9752 13.1951Z" stroke="#141522" stroke-width="1.96566" stroke-linecap="round" stroke-linejoin="round"/>
<path d="M14.0644 22.2265C17.9193 22.2265 21.5121 19.955 24.0129 16.0237C24.9957 14.484 24.9957 11.8958 24.0129 10.3561C21.5121 6.42475 17.9193 4.15332 14.0644 4.15332C10.2096 4.15332 6.61678 6.42475 4.11603 10.3561C3.1332 11.8958 3.1332 14.484 4.11603 16.0237C6.61678 19.955 10.2096 22.2265 14.0644 22.2265Z" stroke="#141522" stroke-width="1.96566" stroke-linecap="round" stroke-linejoin="round"/>
</svg>
