<svg width="96" height="100" viewBox="0 0 96 100" fill="none" xmlns="http://www.w3.org/2000/svg">
<path d="M65.6506 31.8317H30.3477C28.7297 31.8317 27.418 33.1434 27.418 34.7614V45.0342C27.418 46.3346 28.266 47.4358 29.4389 47.8184V65.2373C29.4389 66.8553 30.7506 68.167 32.3686 68.167H63.6301C65.2479 68.167 66.5596 66.8553 66.5596 65.2373V47.8184C67.7322 47.4358 68.5805 46.3346 68.5805 45.0342V34.7614C68.5803 33.1434 67.2686 31.8317 65.6506 31.8317ZM60.7004 62.3075H35.298V47.9637H60.7004V62.3075ZM33.2773 42.1043V37.6908H62.7211V42.1043H33.2773Z" fill="#046F6D"/>
<path d="M51.8879 52.7129H44.1094C42.4914 52.7129 41.1797 54.0246 41.1797 55.6426C41.1797 57.2605 42.4914 58.5723 44.1094 58.5723H51.8879C53.5059 58.5723 54.8176 57.2605 54.8176 55.6426C54.8176 54.0246 53.5059 52.7129 51.8879 52.7129Z" fill="#D1DB5C"/>
<path d="M87.1918 38.068C86.585 16.9733 69.2371 -0.000732422 47.998 -0.000732422C26.759 -0.000732422 9.41133 16.9733 8.80449 38.068C4.03379 39.3534 0.511719 43.7155 0.511719 48.8866V60.5852C0.511719 66.7635 5.53809 71.7897 11.7164 71.7897C17.8947 71.7897 22.9211 66.7635 22.9211 60.5852V48.8868C22.9211 43.7297 19.418 39.378 14.6674 38.0793C15.2664 20.2108 29.9865 5.85864 47.998 5.85864C66.0096 5.85864 80.7299 20.2108 81.3287 38.0791C76.5779 39.3778 73.075 43.7297 73.075 48.8868V60.5852C73.075 65.6991 76.5201 70.0206 81.2104 71.3588C79.9771 83.1762 70.6227 92.6139 58.8424 93.9717V87.3182C58.8424 85.7002 57.5307 84.3885 55.9127 84.3885H46.1221C41.8182 84.3885 38.3168 87.8901 38.3168 92.194C38.3168 96.4977 41.8182 99.9993 46.1221 99.9993H55.9098C72.2475 99.9993 85.6992 87.4165 87.0889 71.4331C91.9121 70.1834 95.4846 65.7938 95.4846 60.5852V48.8868C95.4844 43.7155 91.9621 39.3536 87.1918 38.068ZM17.0617 48.8868V60.5852C17.0617 63.5325 14.6639 65.9303 11.7164 65.9303C8.76914 65.9303 6.37109 63.5325 6.37109 60.5852V48.8868C6.37109 45.9393 8.76895 43.5415 11.7164 43.5415C14.6639 43.5415 17.0617 45.9393 17.0617 48.8868ZM52.983 94.1399H46.1221C45.049 94.1399 44.1762 93.2668 44.1762 92.194C44.1762 91.1209 45.0492 90.2479 46.1221 90.2479H52.983V94.1399ZM89.625 60.5852C89.625 63.5325 87.2271 65.9303 84.2797 65.9303C81.3322 65.9303 78.9344 63.5325 78.9344 60.5852V48.8868C78.9344 45.9393 81.3322 43.5415 84.2797 43.5415C87.227 43.5415 89.625 45.9393 89.625 48.8868V60.5852Z" fill="#046F6D"/>
</svg>
