<svg width="10" height="10" viewBox="0 0 10 10" fill="none" xmlns="http://www.w3.org/2000/svg">
<g clip-path="url(#clip0_1176_40762)">
<path d="M4.64344 0.993762V0.110168C3.12594 0.254543 1.80547 1.08704 0.999687 2.29142C0.854471 2.50907 0.726778 2.73791 0.617812 2.97579C0.374909 3.50338 0.227774 4.06996 0.183281 4.64907H0.167969V5.39673H0.183281C0.227774 5.97584 0.374909 6.54243 0.617812 7.07001C0.726812 7.30787 0.854504 7.53672 0.999687 7.75439C1.80547 8.95876 3.12594 9.79126 4.64344 9.93564V9.05204C4.33797 8.87642 4.04547 8.53657 3.80187 8.06142C3.6675 7.79876 3.55219 7.50689 3.45891 7.19376C3.85224 7.14648 4.24747 7.11666 4.64344 7.10439V6.33298C4.18764 6.34641 3.73272 6.38108 3.28016 6.43689C3.21993 6.09301 3.1824 5.74554 3.16781 5.39673H4.64328V4.64907H3.16781C3.18313 4.29095 3.22125 3.94189 3.28016 3.60892C3.72 3.66392 4.17531 3.69829 4.64344 3.71282V2.94142C4.24747 2.92915 3.85223 2.89933 3.45891 2.85204C3.54633 2.5529 3.66114 2.26245 3.80187 1.98439C4.04547 1.50923 4.33797 1.16861 4.64344 0.993762ZM1.35328 3.22001C1.73689 3.33063 2.12588 3.42163 2.51875 3.49267C2.45277 3.875 2.41195 4.26124 2.39656 4.64892H0.956094C1.00161 4.15263 1.13615 3.6686 1.35328 3.22001ZM1.35328 6.82564C1.13615 6.37705 1.00161 5.89302 0.956094 5.39673H2.39656C2.41344 5.79845 2.45453 6.18564 2.51875 6.5522C2.12593 6.62379 1.73695 6.71505 1.35328 6.82564ZM3.33672 8.78986C2.71917 8.49822 2.18225 8.06009 1.77266 7.51361C2.07582 7.43328 2.38205 7.36499 2.69062 7.30892C2.85172 7.87876 3.07094 8.37986 3.33672 8.78986ZM2.69062 2.73657C2.38204 2.68057 2.0758 2.61229 1.77266 2.53189C2.18229 1.98544 2.7192 1.54733 3.33672 1.25564C3.07094 1.66501 2.85172 2.16689 2.69062 2.73657Z" fill="black"/>
<path d="M9.13969 5.26892C9.10016 4.71002 9.21406 4.15814 9.45203 3.75502C9.52799 3.62495 9.62253 3.50667 9.73266 3.40392C9.77922 3.3597 9.83969 3.28924 9.82719 3.18377C9.82328 3.14345 9.80937 3.10314 9.78375 3.0558C9.6046 2.731 9.4222 2.40802 9.23656 2.08689C9.1675 1.96595 9.07141 1.91939 8.94438 1.94345C8.32578 2.06205 7.75219 1.9497 7.19016 1.59845C6.61891 1.24111 6.27469 0.82408 6.10641 0.286111C6.06063 0.141892 5.96844 0.0729858 5.81656 0.0706421C5.69016 0.0690796 5.56313 0.0675171 5.43672 0.0667358L5.36234 0.0659546C5.32437 0.0659546 5.28562 0.0651733 5.24609 0.0643921V2.24252C5.75375 2.24799 6.25531 2.39752 6.705 2.68127C7.94375 3.46267 8.33047 5.08892 7.58641 6.38033C7.31599 6.82904 6.92566 7.19335 6.45937 7.4322C6.08343 7.62391 5.66823 7.72605 5.24625 7.73064V9.90955C5.41219 9.91111 5.57188 9.91189 5.73156 9.91189C5.76953 9.91189 5.82609 9.90798 5.87969 9.88095C5.91922 9.8608 5.95094 9.83127 5.97344 9.7933C5.98891 9.76611 6.00219 9.73361 6.01141 9.69642C6.04852 9.55138 6.10647 9.41249 6.18344 9.28408C6.41906 8.88564 6.85234 8.51439 7.35938 8.28033C7.87797 8.04002 8.40969 7.97174 8.8175 8.09267C8.885 8.11283 8.97328 8.12986 9.0625 8.08486C9.11906 8.05533 9.16641 8.00658 9.21516 7.92439C9.30969 7.7608 9.40422 7.60033 9.46625 7.49424C9.52984 7.38799 9.62437 7.2283 9.72594 7.06095C9.85078 6.85017 9.76547 6.72377 9.67781 6.63689C9.37531 6.33783 9.17922 5.83939 9.13969 5.26892Z" fill="#5A5A5A"/>
</g>
<defs>
<clipPath id="clip0_1176_40762">
<rect width="10" height="10" fill="white"/>
</clipPath>
</defs>
</svg>
