<svg width="280" height="319" viewBox="0 0 280 319" fill="none" xmlns="http://www.w3.org/2000/svg">
<g style="mix-blend-mode:screen" opacity="0.1">
<path d="M279.385 226.495C274.856 235.266 268.912 232.72 262.401 228.759C224.754 206.973 187.106 185.47 149.741 163.402C142.382 158.875 137.004 159.158 129.644 163.402C92.5623 185.47 55.1977 206.973 17.8331 228.193C12.4549 231.305 6.5105 237.246 0 229.324C2.26452 188.017 0.283065 146.426 1.13226 105.118C1.41533 95.7811 -0.56613 86.4444 2.26452 77.1077C26.3251 59.2831 53.4993 46.2682 79.2582 30.99C91.43 23.6338 103.885 16.2776 116.34 9.20431C138.985 -3.8105 148.043 -3.24464 168.707 12.3166C182.86 23.0679 199.561 29.8583 214.563 39.4779C235.51 52.7756 259.288 61.2636 277.404 79.0882C280.234 96.9128 277.97 114.737 278.536 132.279C279.102 163.967 277.121 195.373 279.385 226.495Z" fill="#046F6D"/>
<path d="M236.358 259.032C235.226 263.842 232.395 266.954 227.866 269.501C201.258 284.496 174.65 299.774 148.325 315.335C142.381 318.73 137.569 319.296 131.341 315.618C104.167 299.774 76.7096 284.213 49.5353 268.369C39.0619 262.144 39.0619 257.052 49.2523 251.11C76.7096 234.7 104.45 219.139 132.19 203.012C137.002 200.183 141.531 199.617 146.627 202.729C173.801 218.573 200.975 234.417 228.432 249.978C232.395 252.242 235.226 254.788 236.358 259.032Z" fill="#D1DB5C"/>
</g>
</svg>
