<svg width="693" height="685" viewBox="0 0 693 685" fill="none" xmlns="http://www.w3.org/2000/svg">
<path d="M136.763 26.4048C108.373 50.4121 78.5432 83.7303 58.0352 129.861C41.9857 165.963 30.0678 214.658 29.81 263.068M2.01747 388.538C1.38854 439.208 17.8316 476.038 37.1998 505.919C76.8584 567.105 126.506 605.861 174.685 632.866C238.347 668.551 304.507 682.02 370.567 682.942C435.428 683.846 501.313 674.347 564.502 644.401C597.064 628.969 630.28 608.589 658.694 572.945M183.901 3.48604C184.721 3.37327 185.295 2.61654 185.183 1.79582C185.07 0.975104 184.313 0.401196 183.492 0.513961C166.889 2.79524 150.706 12.6497 135.794 25.2594C107.277 49.3744 77.2858 82.8661 56.6645 129.252C40.5354 165.533 28.569 214.432 28.3101 263.06C28.2677 271.018 28.4115 278.123 28.9177 284.932C21.7694 294.772 16.1128 303.474 10.9142 318.055C3.67013 338.372 0.818231 364.296 0.517582 388.519C-0.116024 439.567 16.4626 476.684 35.9411 506.735C75.7623 568.172 125.615 607.08 173.951 634.175C237.873 670.005 304.29 683.517 370.546 684.442C435.567 685.349 501.694 675.827 565.144 645.756C597.82 630.27 631.258 609.769 659.867 573.88C665.837 566.39 671.622 558.015 676.648 548.167C682.557 536.585 686.376 528.322 688.777 522.441C691.164 516.593 692.192 512.997 692.438 510.789C692.559 509.704 692.517 508.752 692.184 507.998C692.006 507.595 691.735 507.23 691.356 506.962C690.977 506.694 690.569 506.578 690.204 506.548C689.528 506.493 688.942 506.725 688.632 506.87C688.456 506.952 688.31 507.036 688.206 507.1C688.154 507.132 688.11 507.16 688.077 507.182C688.06 507.194 688.046 507.203 688.035 507.211L688.019 507.222L688.013 507.226L688.011 507.228C688.009 507.229 688.008 507.23 688.884 508.448L688.008 507.23C687.336 507.714 687.183 508.651 687.666 509.324C688.09 509.913 688.863 510.103 689.5 509.816C689.498 509.99 689.485 510.202 689.457 510.457C689.259 512.227 688.37 515.499 685.999 521.307C683.643 527.081 679.865 535.26 673.976 546.803C669.063 556.431 663.399 564.636 657.521 572.01C629.303 607.409 596.308 627.667 563.859 643.045C500.932 672.868 435.288 682.344 370.587 681.442C304.725 680.523 238.82 667.097 175.418 631.558C127.398 604.641 77.9545 566.038 38.4585 505.104C19.2006 475.392 2.8931 438.85 3.51735 388.556C3.8162 364.478 6.65581 338.931 13.7399 319.062C18.3106 306.243 23.2182 298.118 29.3189 289.515C30.1734 297.949 31.6629 306.098 34.1312 315.087C42.4364 345.335 57.9679 361.08 74.2635 371.107C116.786 397.271 165.131 399.246 208.725 385.751C245.014 374.517 282.88 353.354 313.859 313.501C326.519 297.214 350.983 264.911 348.343 228.217C347.162 211.793 339.779 200.568 332.417 194.008C316.172 179.533 297.004 177.036 279.983 174.819L279.844 174.801L279.777 174.792C231.018 168.44 182.935 176.221 135.472 198.696C99.2185 215.862 62.7134 239.467 31.6801 281.169C31.367 275.533 31.2752 269.61 31.31 263.076C31.5667 214.884 43.4361 166.393 59.4059 130.471C79.8005 84.5944 109.468 51.4497 137.731 27.5501C152.486 15.0731 168.137 5.65194 183.901 3.48604Z" stroke="#046F6D" stroke-opacity="0.06" stroke-width="3" stroke-linecap="round" stroke-linejoin="round"/>
</svg>
