<svg width="38" height="43" viewBox="0 0 38 43" fill="none" xmlns="http://www.w3.org/2000/svg">
<g clipPath="url(#clip0_1176_40962)">
<path d="M37.232 30.178C36.6285 31.3474 35.8363 31.0079 34.9687 30.4798C29.9516 27.5751 24.9345 24.7082 19.9552 21.7659C18.9744 21.1623 18.2577 21.2001 17.2769 21.7659C12.3352 24.7082 7.35587 27.5751 2.37651 30.4043C1.65979 30.8193 0.867616 31.6114 0 30.5552C0.301779 25.0477 0.0377224 19.5025 0.15089 13.9951C0.188612 12.7502 -0.0754448 11.5054 0.301779 10.2605C3.50819 7.88404 7.12954 6.1488 10.5623 4.11179C12.1843 3.13101 13.8441 2.15023 15.5039 1.20717C18.5217 -0.528064 19.7288 -0.452619 22.4826 1.62211C24.3687 3.05557 26.5943 3.9609 28.5936 5.24347C31.3851 7.01642 34.5537 8.14809 36.968 10.5246C37.3452 12.9011 37.0434 15.2776 37.1189 17.6164C37.1943 21.8413 36.9302 26.0285 37.232 30.178Z" fill="#046F6D"/>
<path d="M31.4991 34.516C31.3482 35.1572 30.971 35.5722 30.3675 35.9117C26.8216 37.911 23.2757 39.948 19.7675 42.0227C18.9753 42.4754 18.334 42.5508 17.5041 42.0604C13.8828 39.948 10.2237 37.8733 6.60234 35.7608C5.20661 34.9309 5.20661 34.2519 6.56462 33.4597C10.2237 31.2718 13.9205 29.1971 17.6173 27.0469C18.2586 26.6697 18.8621 26.5943 19.5411 27.0092C23.1625 29.1217 26.7838 31.2341 30.4429 33.3088C30.971 33.6106 31.3482 33.9501 31.4991 34.516Z" fill="#D1DB5C"/>
</g>
<defs>
<clipPath id="clip0_1176_40962">
<rect width="37.232" height="42.4" fill="white"/>
</clipPath>
</defs>
</svg>
