<svg width="46" height="46" viewBox="0 0 46 46" fill="none" xmlns="http://www.w3.org/2000/svg">
<path opacity="0.4" d="M39.5221 16.1959C37.5096 7.34091 29.7854 3.35425 23.0004 3.35425C23.0004 3.35425 23.0004 3.35425 22.9813 3.35425C16.2154 3.35425 8.47209 7.32175 6.45959 16.1767C4.21709 26.0667 10.2738 34.4426 15.7554 39.7134C17.7871 41.6684 20.3938 42.6459 23.0004 42.6459C25.6071 42.6459 28.2138 41.6684 30.2263 39.7134C35.7079 34.4426 41.7646 26.0859 39.5221 16.1959Z" fill="#046F6D"/>
<path d="M22.9984 25.7984C26.3329 25.7984 29.0359 23.0953 29.0359 19.7609C29.0359 16.4265 26.3329 13.7234 22.9984 13.7234C19.664 13.7234 16.9609 16.4265 16.9609 19.7609C16.9609 23.0953 19.664 25.7984 22.9984 25.7984Z" fill="#046F6D"/>
</svg>
