<svg width="48" height="48" viewBox="0 0 48 48" fill="none" xmlns="http://www.w3.org/2000/svg">
<path d="M41.25 37.5V46.5H11.25C10.0565 46.5 8.91193 46.0259 8.06802 45.182C7.22411 44.3381 6.75 43.1935 6.75 42C6.75 40.8065 7.22411 39.6619 8.06802 38.818C8.91193 37.9741 10.0565 37.5 11.25 37.5H41.25Z" fill="url(#paint0_linear_1489_47632)"/>
<path d="M11.25 1.5V37.5H41.25V1.5H11.25ZM26.25 30.75C24.1733 30.75 22.1432 30.1342 20.4165 28.9804C18.6898 27.8267 17.344 26.1868 16.5493 24.2682C15.7545 22.3496 15.5466 20.2384 15.9518 18.2016C16.3569 16.1648 17.3569 14.2938 18.8254 12.8254C20.2938 11.3569 22.1648 10.3569 24.2016 9.95175C26.2384 9.54661 28.3496 9.75454 30.2682 10.5493C32.1868 11.344 33.8267 12.6898 34.9804 14.4165C36.1342 16.1432 36.75 18.1733 36.75 20.25C36.75 23.0348 35.6438 25.7055 33.6746 27.6746C31.7055 29.6438 29.0348 30.75 26.25 30.75Z" fill="url(#paint1_linear_1489_47632)"/>
<path d="M11.25 1.5V37.5C10.0565 37.5 8.91193 37.9741 8.06802 38.818C7.22411 39.6619 6.75 40.8065 6.75 42V6C6.75 4.80653 7.22411 3.66193 8.06802 2.81802C8.91193 1.97411 10.0565 1.5 11.25 1.5Z" fill="#046F6D"/>
<path d="M26.25 9.75C24.1733 9.75 22.1432 10.3658 20.4165 11.5196C18.6898 12.6733 17.344 14.3132 16.5493 16.2318C15.7545 18.1504 15.5466 20.2616 15.9518 22.2984C16.3569 24.3352 17.3569 26.2062 18.8254 27.6746C20.2938 29.1431 22.1648 30.1431 24.2016 30.5482C26.2384 30.9534 28.3496 30.7455 30.2682 29.9507C32.1868 29.156 33.8267 27.8102 34.9804 26.0835C36.1342 24.3568 36.75 22.3267 36.75 20.25C36.75 17.4652 35.6438 14.7945 33.6746 12.8254C31.7055 10.8562 29.0348 9.75 26.25 9.75ZM32.25 22.5H28.5V26.25C28.5 26.6478 28.342 27.0294 28.0607 27.3107C27.7794 27.592 27.3978 27.75 27 27.75H25.5C25.1022 27.75 24.7206 27.592 24.4393 27.3107C24.158 27.0294 24 26.6478 24 26.25V22.5H20.25C19.8522 22.5 19.4706 22.342 19.1893 22.0607C18.908 21.7794 18.75 21.3978 18.75 21V19.5C18.75 19.1022 18.908 18.7206 19.1893 18.4393C19.4706 18.158 19.8522 18 20.25 18H24V14.25C24 13.8522 24.158 13.4706 24.4393 13.1893C24.7206 12.908 25.1022 12.75 25.5 12.75H27C27.3978 12.75 27.7794 12.908 28.0607 13.1893C28.342 13.4706 28.5 13.8522 28.5 14.25V18H32.25C32.6478 18 33.0294 18.158 33.3107 18.4393C33.592 18.7206 33.75 19.1022 33.75 19.5V21C33.75 21.3978 33.592 21.7794 33.3107 22.0607C33.0294 22.342 32.6478 22.5 32.25 22.5Z" fill="#D7E9F7"/>
<path d="M33.75 19.5V21C33.75 21.3978 33.592 21.7794 33.3107 22.0607C33.0294 22.342 32.6478 22.5 32.25 22.5H28.5V26.25C28.5 26.6478 28.342 27.0294 28.0607 27.3107C27.7794 27.592 27.3978 27.75 27 27.75H25.5C25.1022 27.75 24.7206 27.592 24.4393 27.3107C24.158 27.0294 24 26.6478 24 26.25V22.5H20.25C19.8522 22.5 19.4706 22.342 19.1893 22.0607C18.908 21.7794 18.75 21.3978 18.75 21V19.5C18.75 19.1022 18.908 18.7206 19.1893 18.4393C19.4706 18.158 19.8522 18 20.25 18H24V14.25C24 13.8522 24.158 13.4706 24.4393 13.1893C24.7206 12.908 25.1022 12.75 25.5 12.75H27C27.3978 12.75 27.7794 12.908 28.0607 13.1893C28.342 13.4706 28.5 13.8522 28.5 14.25V18H32.25C32.6478 18 33.0294 18.158 33.3107 18.4393C33.592 18.7206 33.75 19.1022 33.75 19.5Z" fill="url(#paint2_linear_1489_47632)"/>
<path d="M41.25 42.75V44.25H10.5C10.3011 44.25 10.1103 44.171 9.96967 44.0303C9.82902 43.8897 9.75 43.6989 9.75 43.5C9.75 43.3011 9.82902 43.1103 9.96967 42.9697C10.1103 42.829 10.3011 42.75 10.5 42.75H41.25ZM41.25 39.75V41.25H10.5C10.3011 41.25 10.1103 41.171 9.96967 41.0303C9.82902 40.8897 9.75 40.6989 9.75 40.5C9.75 40.3011 9.82902 40.1103 9.96967 39.9697C10.1103 39.829 10.3011 39.75 10.5 39.75H41.25Z" fill="#B4CDE1"/>
<defs>
<linearGradient id="paint0_linear_1489_47632" x1="6.75" y1="42" x2="41.25" y2="42" gradientUnits="userSpaceOnUse">
<stop stop-color="#D3E6F5"/>
<stop offset="1" stop-color="#F0F7FC"/>
</linearGradient>
<linearGradient id="paint1_linear_1489_47632" x1="14.7075" y1="39.495" x2="37.7925" y2="-0.495" gradientUnits="userSpaceOnUse">
<stop stop-color="#046F6D"/>
<stop offset="1" stop-color="#046F6D" stop-opacity="0.63"/>
</linearGradient>
<linearGradient id="paint2_linear_1489_47632" x1="18.75" y1="20.25" x2="33.75" y2="20.25" gradientUnits="userSpaceOnUse">
<stop stop-color="#50B5FF"/>
<stop offset="1" stop-color="#0062FF"/>
</linearGradient>
</defs>
</svg>
