<svg width="40" height="40" viewBox="0 0 40 40" fill="none" xmlns="http://www.w3.org/2000/svg">
<path d="M28.3346 13.75H11.668C10.9846 13.75 10.418 13.1833 10.418 12.5C10.418 11.8167 10.9846 11.25 11.668 11.25H28.3346C29.018 11.25 29.5846 11.8167 29.5846 12.5C29.5846 13.1833 29.018 13.75 28.3346 13.75Z" fill="#292D32"/>
<path d="M28.3346 21.25H11.668C10.9846 21.25 10.418 20.6833 10.418 20C10.418 19.3167 10.9846 18.75 11.668 18.75H28.3346C29.018 18.75 29.5846 19.3167 29.5846 20C29.5846 20.6833 29.018 21.25 28.3346 21.25Z" fill="#292D32"/>
<path d="M28.3346 28.75H11.668C10.9846 28.75 10.418 28.1833 10.418 27.5C10.418 26.8167 10.9846 26.25 11.668 26.25H28.3346C29.018 26.25 29.5846 26.8167 29.5846 27.5C29.5846 28.1833 29.018 28.75 28.3346 28.75Z" fill="#292D32"/>
</svg>
