<svg width="46" height="46" viewBox="0 0 46 46" fill="none" xmlns="http://www.w3.org/2000/svg">
<path opacity="0.4" d="M34.5 39.2918H32.5833V38.8126C32.5833 36.7043 30.8583 34.9793 28.75 34.9793H24.4375V30.5901C23.9583 30.6476 23.4792 30.6668 23 30.6668C22.5208 30.6668 22.0417 30.6476 21.5625 30.5901V34.9793H17.25C15.1417 34.9793 13.4167 36.7043 13.4167 38.8126V39.2918H11.5C10.7142 39.2918 10.0625 39.9434 10.0625 40.7293C10.0625 41.5151 10.7142 42.1668 11.5 42.1668H34.5C35.2858 42.1668 35.9375 41.5151 35.9375 40.7293C35.9375 39.9434 35.2858 39.2918 34.5 39.2918Z" fill="#046F6D"/>
<path opacity="0.4" d="M10.5811 22.3099C9.31609 21.8308 8.20443 21.0449 7.32276 20.1633C5.54026 18.1891 4.37109 15.8316 4.37109 13.0716C4.37109 10.3116 6.53693 8.14575 9.29693 8.14575H10.3703C9.87193 9.16159 9.58443 10.2924 9.58443 11.4999V17.2499C9.58443 19.0516 9.92943 20.7574 10.5811 22.3099Z" fill="#046F6D"/>
<path opacity="0.4" d="M41.6319 13.0716C41.6319 15.8316 40.4627 18.1891 38.6802 20.1633C37.7985 21.0449 36.6869 21.8308 35.4219 22.3099C36.0735 20.7574 36.4185 19.0516 36.4185 17.2499V11.4999C36.4185 10.2924 36.131 9.16159 35.6327 8.14575H36.706C39.466 8.14575 41.6319 10.3116 41.6319 13.0716Z" fill="#046F6D"/>
<path d="M28.7487 3.83325H17.2487C13.0129 3.83325 9.58203 7.26409 9.58203 11.4999V17.2499C9.58203 24.6674 15.5812 30.6666 22.9987 30.6666C30.4162 30.6666 36.4154 24.6674 36.4154 17.2499V11.4999C36.4154 7.26409 32.9845 3.83325 28.7487 3.83325ZM28.442 16.1958L27.2537 17.6524C27.062 17.8633 26.9279 18.2849 26.947 18.5724L27.062 20.4508C27.1387 21.6008 26.3145 22.1949 25.2412 21.7733L23.497 21.0833C23.2287 20.9874 22.7687 20.9874 22.5004 21.0833L20.7562 21.7733C19.6829 22.1949 18.8587 21.6008 18.9354 20.4508L19.0504 18.5724C19.0695 18.2849 18.9354 17.8633 18.7437 17.6524L17.5554 16.1958C16.8079 15.3141 17.1337 14.3366 18.2454 14.0491L20.0662 13.5891C20.3537 13.5124 20.6987 13.2441 20.852 12.9949L21.8679 11.4233C22.5004 10.4458 23.497 10.4458 24.1295 11.4233L25.1454 12.9949C25.2987 13.2441 25.6437 13.5124 25.9312 13.5891L27.752 14.0491C28.8637 14.3366 29.1895 15.3141 28.442 16.1958Z" fill="#046F6D"/>
<path opacity="0.4" d="M28.4425 16.1958L27.2542 17.6525C27.0625 17.8633 26.9284 18.285 26.9475 18.5725L27.0625 20.4508C27.1392 21.6008 26.315 22.195 25.2417 21.7733L23.4975 21.0833C23.2292 20.9875 22.7692 20.9875 22.5009 21.0833L20.7567 21.7733C19.6834 22.195 18.8592 21.6008 18.9359 20.4508L19.0509 18.5725C19.07 18.285 18.9359 17.8633 18.7442 17.6525L17.5559 16.1958C16.8084 15.3141 17.1342 14.3366 18.2459 14.0491L20.0667 13.5891C20.3542 13.5125 20.6992 13.2441 20.8525 12.995L21.8684 11.4233C22.5009 10.4458 23.4975 10.4458 24.13 11.4233L25.1459 12.995C25.2992 13.2441 25.6442 13.5125 25.9317 13.5891L27.7525 14.0491C28.8642 14.3366 29.19 15.3141 28.4425 16.1958Z" fill="#046F6D"/>
</svg>
