<svg width="46" height="46" viewBox="0 0 46 46" fill="none" xmlns="http://www.w3.org/2000/svg">
<path d="M33.7704 20.6042C32.9462 20.6042 32.2945 19.9334 32.2945 19.1284C32.2945 18.4192 31.5854 16.9434 30.397 15.6592C29.2279 14.4134 27.9437 13.6851 26.8704 13.6851C26.0462 13.6851 25.3945 13.0142 25.3945 12.2092C25.3945 11.4042 26.0654 10.7334 26.8704 10.7334C28.787 10.7334 30.7995 11.7684 32.5629 13.6276C34.2112 15.3717 35.2654 17.5376 35.2654 19.1092C35.2654 19.9334 34.5945 20.6042 33.7704 20.6042Z" fill="#046F6D"/>
<path d="M40.6899 20.6041C39.8657 20.6041 39.2141 19.9333 39.2141 19.1283C39.2141 12.3241 33.6749 6.80409 26.8899 6.80409C26.0657 6.80409 25.4141 6.13325 25.4141 5.32825C25.4141 4.52325 26.0657 3.83325 26.8707 3.83325C35.3041 3.83325 42.1657 10.6949 42.1657 19.1283C42.1657 19.9333 41.4949 20.6041 40.6899 20.6041Z" fill="#046F6D"/>
<path opacity="0.4" d="M22.5962 27.2358L16.3287 33.5033C15.6387 32.8899 14.9679 32.2574 14.3162 31.6058C12.342 29.6124 10.5595 27.5233 8.9687 25.3383C7.39703 23.1533 6.13203 20.9683 5.21203 18.8024C4.29203 16.6174 3.83203 14.5283 3.83203 12.5349C3.83203 11.2316 4.06203 9.98575 4.52203 8.83575C4.98203 7.66659 5.71036 6.59325 6.7262 5.63492C7.95286 4.42742 9.29453 3.83325 10.7129 3.83325C11.2495 3.83325 11.7862 3.94825 12.2654 4.17825C12.7637 4.40825 13.2045 4.75325 13.5495 5.25159L17.9962 11.5191C18.3412 11.9983 18.5904 12.4391 18.7629 12.8608C18.9354 13.2633 19.0312 13.6658 19.0312 14.0299C19.0312 14.4899 18.897 14.9499 18.6287 15.3908C18.3795 15.8316 18.0154 16.2916 17.5554 16.7516L16.0987 18.2658C15.8879 18.4766 15.792 18.7258 15.792 19.0324C15.792 19.1858 15.8112 19.3199 15.8495 19.4733C15.907 19.6266 15.9645 19.7416 16.0029 19.8566C16.3479 20.4891 16.942 21.3133 17.7854 22.3099C18.6479 23.3066 19.5679 24.3224 20.5645 25.3383C21.2545 26.0091 21.9254 26.6608 22.5962 27.2358Z" fill="#046F6D"/>
<path d="M42.1076 35.1324C42.1076 35.6691 42.0118 36.2249 41.8201 36.7616C41.7626 36.9149 41.7051 37.0682 41.6284 37.2216C41.3026 37.9116 40.8809 38.5632 40.3251 39.1766C39.3859 40.2116 38.3509 40.9591 37.1818 41.4382C37.1626 41.4382 37.1434 41.4574 37.1243 41.4574C35.9934 41.9174 34.7668 42.1666 33.4443 42.1666C31.4893 42.1666 29.4001 41.7066 27.1959 40.7674C24.9918 39.8282 22.7876 38.5632 20.6026 36.9724C19.8551 36.4166 19.1076 35.8607 18.3984 35.2666L24.6659 28.9991C25.2026 29.4016 25.6818 29.7082 26.0843 29.9191C26.1801 29.9574 26.2951 30.0149 26.4293 30.0724C26.5826 30.1299 26.7359 30.1491 26.9084 30.1491C27.2343 30.1491 27.4834 30.0341 27.6943 29.8232L29.1509 28.3857C29.6301 27.9066 30.0901 27.5424 30.5309 27.3124C30.9718 27.0441 31.4126 26.9099 31.8918 26.9099C32.2559 26.9099 32.6393 26.9866 33.0609 27.1591C33.4826 27.3316 33.9234 27.5807 34.4026 27.9066L40.7468 32.4107C41.2451 32.7557 41.5901 33.1582 41.8009 33.6374C41.9926 34.1166 42.1076 34.5957 42.1076 35.1324Z" fill="#046F6D"/>
</svg>
