<svg width="24" height="24" viewBox="0 0 24 24" fill="none" xmlns="http://www.w3.org/2000/svg">
<path fill-rule="evenodd" clip-rule="evenodd" d="M17.3014 15.3C17.0014 15.5 16.8014 15.5 16.6014 15.6C16.4014 15.6 16.3014 15.7 16.2014 15.8C16.0014 15.8 16.0014 16 16.0014 16.1C16.0014 16.2 16.0014 16.3 15.9014 16.4C15.8014 16.5 15.6014 16.5 15.4014 16.5C15.1014 16.5 14.7014 16.5 14.3014 16.7C14.1014 16.8 13.9014 16.9 13.7014 17C13.3014 17.3 12.9014 17.5 12.1014 17.5C11.3014 17.5 10.9014 17.2 10.5014 17C10.3014 16.9 10.1014 16.7 9.90141 16.7C9.50141 16.6 9.10141 16.5 8.80141 16.5C8.60141 16.5 8.40141 16.5 8.30141 16.4C8.00141 16.3 8.00141 16.2 8.00141 16.1C8.00141 16 8.00141 15.8 7.80141 15.8C7.70141 15.7 7.50141 15.7 7.40141 15.6C7.20141 15.5 7.00141 15.5 6.70141 15.3C6.40141 15.1 6.60141 15 6.70141 14.9C8.60141 14 8.90141 12.5 8.90141 12.4C8.90141 12.3 8.90141 12.2 8.80141 12.1C8.70141 12 8.40142 11.8 8.10142 11.7C8.00142 11.6 7.90141 11.6 7.80141 11.5C7.50141 11.3 7.40141 11.1 7.50141 10.9C7.60141 10.7 7.70141 10.7 7.90141 10.7C8.00141 10.7 8.00142 10.7 8.10142 10.7C8.30142 10.7 8.50142 10.8 8.60142 10.9C8.70142 10.9 8.80141 11 8.90141 11C8.90141 11 8.90141 11 9.00141 11C9.10141 11 9.10142 11 9.10142 10.8V10.7C9.10142 10.4 9.00142 9.69995 9.10142 9.19995C9.20142 8.39995 9.40141 7.89995 9.80141 7.59995C10.0014 7.39995 10.7014 6.69995 12.1014 6.69995C13.5014 6.69995 14.2014 7.49995 14.4014 7.59995C14.7014 7.99995 15.0014 8.39995 15.1014 9.19995C15.2014 9.79995 15.1014 10.4 15.1014 10.8C15.1014 10.9 15.1014 11 15.2014 11C15.2014 11 15.2014 11 15.3014 11C15.4014 11 15.5014 10.9 15.6014 10.9C15.8014 10.8 15.9014 10.8 16.1014 10.7C16.1014 10.7 16.2014 10.7 16.3014 10.7C16.5014 10.7 16.6014 10.8 16.7014 10.9C16.8014 11.1 16.7014 11.3 16.4014 11.5C16.3014 11.5 16.2014 11.6 16.1014 11.7C15.9014 11.9 15.5014 12.1 15.4014 12.1C15.3014 12.2 15.3014 12.3 15.3014 12.4C15.3014 12.5 15.6014 13.9 17.5014 14.9C17.5014 15 17.7014 15.1 17.3014 15.3Z" stroke="white" stroke-width="1.5" stroke-miterlimit="10" stroke-linejoin="round"/>
<path d="M12 22C17.5228 22 22 17.5228 22 12C22 6.47715 17.5228 2 12 2C6.47715 2 2 6.47715 2 12C2 17.5228 6.47715 22 12 22Z" stroke="white" stroke-width="1.5" stroke-miterlimit="10" stroke-linejoin="round"/>
</svg>
