<svg width="48" height="48" viewBox="0 0 48 48" fill="none" xmlns="http://www.w3.org/2000/svg">
<path d="M36.088 30.1009V35.7697H8.13281V30.1009C8.13281 28.8097 8.50241 27.5377 9.24641 26.4865C9.54401 26.0689 14.3296 23.3761 16.5616 22.3201C17.0464 22.0945 17.4112 21.9409 17.584 21.9073C18.448 21.7201 19.3264 21.6289 20.2144 21.6289H24.0304C24.9136 21.6289 25.792 21.7201 26.6464 21.9073C26.8192 21.9409 27.184 22.0945 27.6688 22.3249C29.92 23.3953 34.7728 26.1553 35.08 26.6161C35.7568 27.6481 36.088 28.8673 36.088 30.1009Z" fill="#626C78"/>
<path d="M27.6619 22.3298V22.8626C27.6619 24.3458 27.0859 25.7426 26.0347 26.789C25.5207 27.3068 24.9089 27.7173 24.2348 27.9967C23.5608 28.276 22.8379 28.4186 22.1083 28.4162C19.0459 28.4162 16.5547 25.925 16.5547 22.8626V22.325C17.0395 22.0994 17.4043 21.9458 17.5771 21.9122C18.4411 21.725 19.3195 21.6338 20.2075 21.6338H24.0235C24.9067 21.6338 25.7851 21.725 26.6395 21.9122C26.8171 21.9458 27.1771 22.0994 27.6619 22.3298Z" fill="#F7F7F7"/>
<path d="M26.6405 21.9071V22.8575C26.6405 24.0671 26.1701 25.2047 25.3157 26.0591C24.8968 26.4834 24.3974 26.82 23.8469 27.0491C23.2963 27.2782 22.7056 27.3953 22.1093 27.3935C19.6085 27.3935 17.5781 25.3631 17.5781 22.8623V21.9119C18.4421 21.7247 19.3205 21.6335 20.2085 21.6335H24.0245C24.9077 21.6287 25.7861 21.7199 26.6405 21.9071Z" fill="#F7C680"/>
<path d="M25.621 17.7407V22.8575C25.621 23.8271 25.2274 24.7055 24.5938 25.3391C24.1029 25.8317 23.4769 26.1675 22.795 26.3039C22.1132 26.4404 21.4061 26.3713 20.7636 26.1055C20.121 25.8398 19.5717 25.3892 19.1855 24.811C18.7992 24.2328 18.5933 23.5529 18.5938 22.8575V17.7407H25.621Z" fill="#F7C680"/>
<path d="M25.6288 17.7407V20.5823C24.6592 21.4943 23.5312 22.0751 22.3216 22.0751C20.9344 22.0751 19.6528 21.3119 18.6016 20.1599V17.7407H25.6288Z" fill="#F6B460"/>
<path d="M15.5859 12.9167C15.5859 9.16788 18.5139 6.13428 22.1283 6.13428C22.1283 6.13428 28.6707 6.18228 28.6707 12.9167C28.6707 16.6655 25.7427 21.8783 22.1283 21.8783C18.5139 21.8783 15.5859 16.6655 15.5859 12.9167Z" fill="#F7C680"/>
<path d="M29.1342 14.6095C29.4266 13.6927 29.2807 12.8274 28.8084 12.6768C28.3361 12.5261 27.7163 13.1473 27.4239 14.0641C27.1315 14.9809 27.2774 15.8462 27.7497 15.9968C28.222 16.1474 28.8419 15.5263 29.1342 14.6095Z" fill="#F7C680"/>
<path d="M16.4999 15.9927C16.9721 15.8421 17.118 14.9768 16.8256 14.0599C16.5333 13.1431 15.9134 12.522 15.4411 12.6726C14.9688 12.8232 14.8229 13.6885 15.1153 14.6054C15.4077 15.5222 16.0276 16.1433 16.4999 15.9927Z" fill="#F7C680"/>
<path d="M27.4002 14.6879C27.6546 13.4591 27.789 11.2367 27.1938 9.70547C26.8626 8.86547 26.1666 8.67827 25.605 8.68307C25.1826 8.68787 24.7698 8.83187 24.405 9.03827C22.0434 10.3679 19.7682 9.83507 18.6114 9.65267C17.8818 9.53747 17.181 9.99347 16.9794 10.6991C16.413 12.6911 16.6434 15.3215 16.6434 15.3215C14.0466 10.3919 16.7634 7.54067 16.7634 7.54067C18.4674 5.12627 20.109 4.56947 24.141 4.86707C28.173 5.16467 28.0866 7.41587 28.0866 7.41587C28.5954 7.71347 28.893 8.94227 28.893 8.94227C29.1474 12.9791 27.4002 14.6879 27.4002 14.6879Z" fill="#3C4B59"/>
<path d="M36.3588 43.1999L32.802 40.1279L29.25 43.1999V33.4175H36.3588V43.1999Z" fill="#046F6D"/>
<path opacity="0.1" d="M36.3588 33.4175V43.1999L32.8068 40.1279L29.25 43.1999V41.5103L32.202 38.9567L35.7588 42.0287V33.4175H36.3588Z" fill="black"/>
<path d="M32.803 37.5791C36.7026 37.5791 39.8638 34.4179 39.8638 30.5183C39.8638 26.6187 36.7026 23.4575 32.803 23.4575C28.9034 23.4575 25.7422 26.6187 25.7422 30.5183C25.7422 34.4179 28.9034 37.5791 32.803 37.5791Z" fill="#F7C680"/>
<path opacity="0.1" d="M37.9534 25.6847C36.6553 24.5025 34.962 23.8485 33.2062 23.8511C29.3038 23.8511 26.1406 27.0143 26.1406 30.9167C26.1406 32.7695 26.8558 34.4543 28.0222 35.7119C27.3028 35.0517 26.7285 34.249 26.336 33.3549C25.9435 32.4608 25.7413 31.4948 25.7422 30.5183C25.7422 26.6159 28.9054 23.4575 32.8078 23.4575C34.8382 23.4527 36.667 24.3119 37.9534 25.6847Z" fill="black"/>
<path d="M32.8033 36.427C36.0667 36.427 38.7121 33.7815 38.7121 30.5182C38.7121 27.2548 36.0667 24.6094 32.8033 24.6094C29.54 24.6094 26.8945 27.2548 26.8945 30.5182C26.8945 33.7815 29.54 36.427 32.8033 36.427Z" fill="#F6B460"/>
<path d="M32.804 35.0879C35.3277 35.0879 37.3736 33.0421 37.3736 30.5183C37.3736 27.9946 35.3277 25.9487 32.804 25.9487C30.2803 25.9487 28.2344 27.9946 28.2344 30.5183C28.2344 33.0421 30.2803 35.0879 32.804 35.0879Z" fill="#F7C680"/>
<path d="M32.8034 27.9697L33.437 29.9137H35.4818L33.8306 31.1185L34.4594 33.0625L32.8034 31.8625L31.1522 33.0625L31.781 31.1185L30.125 29.9137H32.1746L32.8034 27.9697Z" fill="#F6B460"/>
<path opacity="0.1" d="M34.4642 33.0624L32.8034 31.8576L31.1522 33.0624L31.781 31.1184L30.125 29.9136H30.8498L32.0882 30.816L31.4546 32.76L33.1106 31.5552L34.2386 32.376L34.4642 33.0624Z" fill="black"/>
</svg>
