<svg width="107" height="106" viewBox="0 0 107 106" fill="none" xmlns="http://www.w3.org/2000/svg">
<path d="M86.8334 31.3367V3H3.5V69.6666H66.3583" stroke="#046F6D" stroke-width="6" stroke-miterlimit="10" stroke-linecap="round" stroke-linejoin="round"/>
<path d="M59.3768 96.3367C63.9451 96.335 68.1219 93.7533 70.1652 89.6666V63.0066L60.1586 83H43.4986C41.7304 83 40.0353 83.7016 38.7853 84.9533C37.5337 86.2033 36.832 87.8983 36.832 89.6666C36.832 89.6682 36.832 89.6699 36.832 89.6715C36.832 91.4398 37.5353 93.1365 38.7853 94.3865C40.0353 95.6365 41.732 96.3398 43.5003 96.3381C48.2036 96.3383 54.5069 96.3367 59.3768 96.3367Z" stroke="#046F6D" stroke-width="6" stroke-miterlimit="10" stroke-linecap="round" stroke-linejoin="round"/>
<path d="M70.168 63.0066V103H103.501V63L86.8348 54.6699L70.168 63.0066Z" stroke="#046F6D" stroke-width="6" stroke-miterlimit="10" stroke-linecap="round" stroke-linejoin="round"/>
<path d="M38.1666 85.6667L23.5 56.3335" stroke="#046F6D" stroke-width="6" stroke-miterlimit="10" stroke-linecap="round" stroke-linejoin="round"/>
<path d="M86.8346 54.6699C93.2779 54.6699 98.5012 49.4466 98.5012 43.0033C98.5012 36.56 93.2779 31.3367 86.8346 31.3367C80.3913 31.3367 75.168 36.56 75.168 43.0033C75.168 49.4466 80.3913 54.6699 86.8346 54.6699Z" stroke="#046F6D" stroke-width="6" stroke-miterlimit="10" stroke-linecap="round" stroke-linejoin="round"/>
<path d="M16.832 16.3335H43.4986" stroke="#D1DB5C" stroke-width="6" stroke-miterlimit="10" stroke-linecap="round" stroke-linejoin="round"/>
<path d="M16.832 29.6665H63.7403" stroke="#D1DB5C" stroke-width="6" stroke-miterlimit="10" stroke-linecap="round" stroke-linejoin="round"/>
<path d="M16.832 43.0034H53.4986" stroke="#D1DB5C" stroke-width="6" stroke-miterlimit="10" stroke-linecap="round" stroke-linejoin="round"/>
</svg>
