<svg width="101" height="96" viewBox="0 0 101 96" fill="none" xmlns="http://www.w3.org/2000/svg">
<path d="M97.5696 11.2377H81.8638L51.4266 1.09174C50.811 0.886615 50.1446 0.891499 49.532 1.10581L20.5842 11.2377H3.43037C1.81203 11.2377 0.5 12.5497 0.5 14.168V80.3613C0.5 81.9796 1.81203 83.2917 3.43037 83.2917H29.9184V89.1979H21.0814C19.463 89.1979 18.151 90.51 18.151 92.1283C18.151 93.7467 19.463 95.0587 21.0814 95.0587H79.9186C81.537 95.0587 82.849 93.7467 82.849 92.1283C82.849 90.51 81.537 89.1979 79.9186 89.1979H71.0816V83.2915H97.5696C99.188 83.2915 100.5 81.9794 100.5 80.3611V14.168C100.5 12.5495 99.1882 11.2377 97.5696 11.2377ZM34.3087 21.9025C50.0054 27.409 49.7879 27.3952 50.5 27.3952C51.1785 27.3952 50.9614 27.409 66.6913 22.1566V29.8069L50.5 36.0349L34.3087 29.8069V21.9025ZM50.5231 6.96831L72.1228 14.1682L50.5231 21.3682L29.9518 14.1682L50.5231 6.96831ZM65.2206 89.1979H35.7792V83.2915H65.2208V89.1979H65.2206ZM94.6393 77.4307C81.7239 77.4307 25.8725 77.4307 6.36075 77.4307V17.0984H20.5822L28.448 19.8514V31.8195C28.448 33.0318 29.1946 34.1192 30.3263 34.5545C49.8807 42.0943 49.7223 42.1051 50.5 42.1051C51.2773 42.1051 51.1277 42.1109 70.6737 34.5545C71.8054 34.1192 72.552 33.0318 72.552 31.8195V20.2031L78.4597 18.2338V34.7615C78.4597 36.3799 79.7717 37.6919 81.3901 37.6919C83.0084 37.6919 84.3204 36.3799 84.3204 34.7615V17.0984H94.6393V77.4307Z" fill="#046F6D"/>
<path d="M26.9634 50.9536H15.196C13.5777 50.9536 12.2656 52.2656 12.2656 53.884V65.6514C12.2656 67.2697 13.5777 68.5818 15.196 68.5818H26.9634C28.5818 68.5818 29.8938 67.2697 29.8938 65.6514V53.884C29.8938 52.2656 28.5818 50.9536 26.9634 50.9536ZM24.033 62.721H18.1264V56.8144H24.033V62.721Z" fill="#D1DB5C"/>
<path d="M38.7312 50.9536C37.1128 50.9536 35.8008 52.2656 35.8008 53.884C35.8008 55.5023 37.1128 56.8144 38.7312 56.8144H85.801C87.4193 56.8144 88.7313 55.5023 88.7313 53.884C88.7313 52.2656 87.4193 50.9536 85.801 50.9536H38.7312Z" fill="#D1DB5C"/>
<path d="M85.801 62.7209H38.7312C37.1128 62.7209 35.8008 64.033 35.8008 65.6513C35.8008 67.2697 37.1128 68.5817 38.7312 68.5817H85.801C87.4193 68.5817 88.7313 67.2697 88.7313 65.6513C88.7313 64.033 87.4193 62.7209 85.801 62.7209Z" fill="#D1DB5C"/>
</svg>
