<svg width="48" height="48" viewBox="0 0 48 48" fill="none" xmlns="http://www.w3.org/2000/svg">
<path d="M24.0456 14.3716L0.414062 28.0172L24.0456 41.6603L47.6756 28.0172L24.0456 14.3716Z" fill="#58938C"/>
<path d="M5.21484 25.2432V30.7912L24.0423 41.6603L36.6611 34.375V22.4082H10.1238L5.21484 25.2432Z" fill="#44756E"/>
<path d="M14.3906 25.4039V31.5376L32.4508 21.1097V14.9761L14.3906 25.4039Z" fill="#7ABCB8"/>
<path d="M5.35938 26.3235L10.5737 29.3338L14.39 31.5374V25.4037L5.35938 20.1895V26.3235Z" fill="#65A59F"/>
<path d="M14.3906 24.9709V31.1046L32.4508 20.6771V14.5435L14.3906 24.9709Z" fill="#BAE4E5"/>
<path d="M32.4508 14.5435L14.3906 24.9709V31.1046" fill="#A4E0DE"/>
<path d="M5.35938 16.895V25.8913L14.3904 31.1045V24.9708L5.35938 16.895Z" fill="#0B7375"/>
<path d="M23.4207 6.46729L5.35938 16.8947L14.3904 24.9705L32.4506 14.5431L23.4207 6.46729Z" fill="#17A089"/>
<path d="M23.4207 6.46729L5.35938 16.8947L14.3904 24.9705" fill="#178C7B"/>
<path d="M5.35938 25.8905L10.5737 28.9012L14.39 31.1044V24.9707L5.35938 19.7568V25.8905Z" fill="#9BCECE"/>
<path d="M10.5737 28.9012L14.39 31.1044V24.9707L5.35938 19.7568" fill="#7ABCB8"/>
<path d="M5.36337 17.0536C5.33792 17.0536 5.3129 17.047 5.2908 17.0344C5.26871 17.0218 5.25032 17.0035 5.23746 16.9816C5.21868 16.9481 5.21381 16.9086 5.22389 16.8716C5.23398 16.8346 5.25821 16.803 5.29137 16.7837L23.5587 6.23623C23.5922 6.21764 23.6316 6.21287 23.6686 6.22294C23.7056 6.23301 23.7372 6.25712 23.7566 6.29013C23.7755 6.32349 23.7806 6.36296 23.7706 6.4C23.7607 6.43704 23.7365 6.46867 23.7034 6.48804L5.43537 17.0344C5.41359 17.0473 5.38868 17.0539 5.36337 17.0536ZM5.85408 17.5007C5.82857 17.5006 5.80353 17.4939 5.78144 17.4811C5.75935 17.4683 5.74099 17.45 5.72817 17.428C5.70936 17.3946 5.70443 17.3551 5.71444 17.3181C5.72445 17.2811 5.74861 17.2494 5.78171 17.2301L24.0498 6.68373C24.0831 6.66469 24.1226 6.6596 24.1597 6.66956C24.1967 6.67952 24.2284 6.70372 24.2477 6.7369C24.2666 6.7703 24.2716 6.8098 24.2616 6.84685C24.2515 6.8839 24.2273 6.9155 24.1941 6.93481L5.92608 17.4811C5.90419 17.4938 5.87937 17.5006 5.85408 17.5007ZM6.34515 17.9467C6.3197 17.9468 6.29468 17.9402 6.27259 17.9276C6.25049 17.9149 6.2321 17.8967 6.21925 17.8747C6.2003 17.8414 6.19526 17.8019 6.20522 17.7649C6.21517 17.7278 6.23931 17.6962 6.27242 17.6768L24.5405 7.12976C24.5739 7.11088 24.6135 7.10596 24.6505 7.11605C24.6876 7.12614 24.7191 7.15044 24.7384 7.18367C24.7573 7.21702 24.7624 7.2565 24.7524 7.29354C24.7425 7.33058 24.7183 7.36221 24.6852 7.38158L6.41715 17.9279C6.39527 17.9405 6.37041 17.947 6.34515 17.9467ZM6.83586 18.3939C6.8104 18.3938 6.78542 18.387 6.76334 18.3743C6.74127 18.3617 6.72287 18.3435 6.70995 18.3215C6.69103 18.2882 6.686 18.2488 6.69595 18.2118C6.70591 18.1748 6.73004 18.1433 6.76312 18.124L25.0316 7.5769C25.0646 7.56105 25.1025 7.55827 25.1375 7.56914C25.1726 7.58001 25.2022 7.60372 25.2205 7.63551C25.2388 7.66731 25.2444 7.70485 25.2362 7.74061C25.228 7.77636 25.2066 7.8077 25.1763 7.82835L6.90786 18.3747C6.88596 18.3873 6.86113 18.3939 6.83586 18.3939ZM7.32657 18.8403C7.30119 18.8402 7.27626 18.8336 7.25424 18.821C7.23222 18.8083 7.21388 18.7902 7.20103 18.7683C7.18189 18.735 7.17674 18.6954 7.18671 18.6583C7.19668 18.6212 7.22095 18.5896 7.2542 18.5704L25.5223 8.0233C25.5556 8.00429 25.5952 7.99925 25.6323 8.00928C25.6693 8.01931 25.7009 8.0436 25.7202 8.07684C25.739 8.11026 25.7439 8.14973 25.7339 8.18675C25.7239 8.22377 25.6997 8.25537 25.6666 8.27475L7.39857 18.8215C7.37672 18.8342 7.35183 18.8407 7.32657 18.8403ZM7.81765 19.2874C7.79219 19.2873 7.7672 19.2806 7.74513 19.2679C7.72306 19.2552 7.70466 19.237 7.69174 19.2151C7.6728 19.1817 7.66776 19.1422 7.67771 19.1052C7.68766 19.0681 7.7118 19.0365 7.74491 19.0171L26.013 8.47007C26.0464 8.45109 26.086 8.44611 26.123 8.45621C26.1601 8.46631 26.1917 8.49067 26.2109 8.52398C26.2297 8.55731 26.2346 8.59674 26.2245 8.63367C26.2144 8.6706 26.1901 8.70204 26.157 8.72115L7.88965 19.2682C7.86775 19.2808 7.84291 19.2875 7.81765 19.2874ZM8.30798 19.7335C8.27602 19.7338 8.24485 19.7235 8.21939 19.7041C8.19394 19.6848 8.17564 19.6575 8.16739 19.6266C8.15914 19.5957 8.1614 19.563 8.17382 19.5335C8.18624 19.5041 8.20811 19.4796 8.23598 19.4639L26.504 8.91684C26.5373 8.89792 26.5768 8.89289 26.6137 8.90284C26.6507 8.9128 26.6823 8.93693 26.7016 8.97001C26.7206 9.00339 26.7256 9.04292 26.7156 9.08C26.7056 9.11707 26.6813 9.14868 26.648 9.16792L8.38035 19.715C8.35834 19.7276 8.33333 19.734 8.30798 19.7335ZM8.79869 20.181C8.77326 20.181 8.74829 20.1742 8.7263 20.1615C8.70432 20.1487 8.68611 20.1303 8.67352 20.1082C8.65458 20.0749 8.64954 20.0354 8.65949 19.9984C8.66944 19.9613 8.69359 19.9297 8.72669 19.9103L26.994 9.36361C27.0273 9.34457 27.0669 9.33948 27.1039 9.34943C27.141 9.35939 27.1726 9.3836 27.1919 9.41678C27.2111 9.45009 27.2162 9.48962 27.2062 9.52672C27.1963 9.56382 27.172 9.59546 27.1388 9.61469L8.87106 20.1618C8.84899 20.1743 8.82406 20.1809 8.79869 20.181ZM9.2894 20.627C9.26404 20.6271 9.2391 20.6205 9.21711 20.6079C9.19512 20.5952 9.17688 20.577 9.16423 20.555C9.14539 20.5216 9.1404 20.4822 9.15034 20.4452C9.16029 20.4082 9.18437 20.3765 9.2174 20.3571L27.4855 9.81038C27.5188 9.79123 27.5583 9.7861 27.5954 9.79611C27.6325 9.80611 27.664 9.83044 27.6832 9.86373C27.7023 9.89703 27.7075 9.93656 27.6975 9.97364C27.6875 10.0107 27.6631 10.0423 27.6298 10.0615L9.36251 20.6082C9.34032 20.621 9.31503 20.6275 9.2894 20.627ZM9.78048 21.0745C9.74877 21.074 9.71809 21.0632 9.69309 21.0437C9.66809 21.0242 9.65015 20.9971 9.642 20.9664C9.63385 20.9358 9.63593 20.9033 9.64793 20.874C9.65993 20.8446 9.68119 20.82 9.70848 20.8039L27.9762 10.2571C28.0093 10.2403 28.0476 10.2368 28.0832 10.2474C28.1188 10.258 28.149 10.2819 28.1676 10.3141C28.1862 10.3462 28.1917 10.3843 28.183 10.4204C28.1743 10.4566 28.1521 10.488 28.1209 10.5082L9.85322 21.0553C9.831 21.0678 9.80596 21.0744 9.78048 21.0745ZM10.2712 21.5213C10.2459 21.5212 10.221 21.5146 10.199 21.5019C10.177 21.4893 10.1588 21.4712 10.146 21.4493C10.1269 21.416 10.1217 21.3764 10.1317 21.3393C10.1417 21.3022 10.1659 21.2706 10.1992 21.2514L28.4672 10.7039C28.5005 10.6848 28.5401 10.6796 28.5772 10.6896C28.6142 10.6997 28.6458 10.724 28.665 10.7573C28.6841 10.7906 28.6893 10.8301 28.6792 10.8672C28.6692 10.9043 28.6449 10.9359 28.6116 10.955L10.3443 21.5013C10.3223 21.5147 10.2969 21.5216 10.2712 21.5213ZM10.7623 21.9677C10.7369 21.9678 10.7119 21.9611 10.6899 21.9484C10.6679 21.9357 10.6497 21.9174 10.6371 21.8953C10.6181 21.862 10.613 21.8225 10.6229 21.7854C10.6329 21.7483 10.6571 21.7167 10.6903 21.6974L28.958 11.1507C28.9912 11.1315 29.0308 11.1264 29.0679 11.1364C29.1049 11.1464 29.1365 11.1707 29.1557 11.204C29.1748 11.2373 29.18 11.2769 29.1699 11.314C29.1599 11.351 29.1356 11.3826 29.1023 11.4018L10.835 21.9488C10.8127 21.9611 10.7877 21.9676 10.7623 21.9677ZM11.2533 22.4144C11.228 22.4144 11.203 22.4077 11.181 22.3951C11.159 22.3824 11.1407 22.3643 11.1278 22.3424C11.1088 22.3091 11.1038 22.2695 11.1138 22.2325C11.1238 22.1954 11.1481 22.1638 11.1813 22.1445L29.449 11.5975C29.4824 11.5785 29.5219 11.5736 29.559 11.5836C29.596 11.5936 29.6276 11.6178 29.6469 11.651C29.6659 11.6843 29.6709 11.7238 29.661 11.7609C29.651 11.7979 29.6269 11.8295 29.5938 11.8489L11.3257 22.3949C11.3038 22.4078 11.2788 22.4145 11.2533 22.4144ZM11.744 22.8612C11.7186 22.8613 11.6935 22.8546 11.6714 22.8419C11.6493 22.8292 11.6309 22.8109 11.6181 22.7888C11.5994 22.7554 11.5945 22.7159 11.6046 22.6788C11.6147 22.6418 11.6389 22.6102 11.672 22.5909L29.9401 12.0442C29.9734 12.0253 30.0129 12.0204 30.0499 12.0304C30.0869 12.0404 30.1184 12.0646 30.1376 12.0978C30.1567 12.1311 30.1618 12.1706 30.1518 12.2077C30.1419 12.2447 30.1177 12.2764 30.0845 12.2957L11.816 22.842C11.7941 22.8544 11.7693 22.8611 11.744 22.8612ZM12.2351 23.3083C12.2097 23.3082 12.1847 23.3014 12.1627 23.2887C12.1406 23.276 12.1222 23.2579 12.1092 23.236C12.0903 23.2026 12.0852 23.1632 12.0952 23.1261C12.1051 23.0891 12.1293 23.0574 12.1624 23.0381L30.4308 12.491C30.4641 12.472 30.5036 12.4669 30.5407 12.4768C30.5778 12.4868 30.6094 12.511 30.6287 12.5442C30.6477 12.5775 30.6527 12.617 30.6428 12.654C30.6328 12.6911 30.6087 12.7227 30.5756 12.7421L12.3071 23.2884C12.2853 23.3014 12.2605 23.3083 12.2351 23.3083ZM12.7258 23.7547C12.6939 23.7549 12.6628 23.7445 12.6374 23.7251C12.6119 23.7057 12.5937 23.6785 12.5854 23.6476C12.5771 23.6168 12.5792 23.584 12.5914 23.5545C12.6037 23.525 12.6254 23.5004 12.6531 23.4845L30.9212 12.9374C30.9545 12.9186 30.994 12.9137 31.0309 12.9237C31.0679 12.9336 31.0996 12.9576 31.1191 12.9906C31.1381 13.0239 31.1432 13.0634 31.1332 13.1005C31.1233 13.1375 31.0991 13.1692 31.0659 13.1885L12.7978 23.7355C12.7759 23.7482 12.7511 23.7548 12.7258 23.7547ZM13.2165 24.2015C13.1911 24.2014 13.1662 24.1947 13.1441 24.1821C13.122 24.1695 13.1036 24.1514 13.0906 24.1295C13.0717 24.0961 13.0667 24.0566 13.0768 24.0196C13.0868 23.9825 13.111 23.9509 13.1442 23.9316L31.4122 13.3842C31.4456 13.3653 31.485 13.3603 31.5221 13.3703C31.5591 13.3802 31.5907 13.4043 31.6101 13.4373C31.6291 13.4707 31.6342 13.5102 31.6242 13.5473C31.6141 13.5844 31.5898 13.616 31.5566 13.6352L13.2885 24.1819C13.2668 24.1949 13.2419 24.2016 13.2165 24.2015ZM13.7076 24.6483C13.6821 24.6483 13.657 24.6415 13.6349 24.6288C13.6128 24.616 13.5945 24.5977 13.5817 24.5755C13.5628 24.5422 13.5577 24.5027 13.5677 24.4657C13.5776 24.4286 13.6018 24.397 13.6349 24.3776L31.9033 13.8313C31.9367 13.8121 31.9764 13.807 32.0135 13.817C32.0507 13.827 32.0824 13.8514 32.1016 13.8848C32.1208 13.9182 32.1259 13.9579 32.1159 13.9951C32.1058 14.0323 32.0814 14.0639 32.048 14.0831L13.7796 24.6291C13.7577 24.6417 13.7329 24.6483 13.7076 24.6483ZM14.1983 25.0951C14.1729 25.0949 14.148 25.0882 14.1259 25.0756C14.1038 25.063 14.0854 25.0449 14.0724 25.0231C14.0535 24.9897 14.0484 24.9502 14.0584 24.9132C14.0683 24.8762 14.0925 24.8445 14.1256 24.8251L32.394 14.2781C32.4273 14.259 32.4668 14.2538 32.5038 14.2637C32.5409 14.2736 32.5726 14.2978 32.5919 14.3309C32.6109 14.3642 32.6159 14.4037 32.606 14.4407C32.596 14.4778 32.5719 14.5094 32.5388 14.5288L14.2707 25.0751C14.2488 25.0883 14.2238 25.0952 14.1983 25.0951Z" fill="#1DB59B"/>
<path d="M31.5196 15.7153V21.5831L18.9336 28.8492V22.9829L31.5196 15.7153Z" fill="#6FAEDD"/>
<path d="M31.2847 21.4749L18.9336 28.6055V22.9832L31.2847 15.853V21.4749Z" fill="#3AA3D8"/>
<path d="M18.9336 28.6055V22.9832L31.2847 15.853" fill="#1D96CC"/>
<path opacity="0.6" d="M27.9482 23.5981L22.5039 26.7402V20.9887L27.9482 17.8462V23.5981Z" fill="#3AA3D8"/>
<path opacity="0.6" d="M25.2266 19.4083L25.4197 19.2979V25.0486L25.2266 25.1616V19.4083Z" fill="#3AA3D8"/>
<path d="M27.2461 33.4345V33.7243L36.7405 28.2424V27.9521L27.2461 33.4345Z" fill="#7ABCB8"/>
<path d="M18.9336 28.6294V28.9196L27.2468 33.7244V33.4346L18.9336 28.6294Z" fill="#65A59F"/>
<path d="M28.4287 23.147L18.9336 28.6293L27.2468 33.4345L36.7412 27.9521L28.4287 23.147Z" fill="#78BAB2"/>
<path d="M18.9336 28.6293L27.2468 33.4345L36.7412 27.9521" fill="#83C6C0"/>
<path d="M35.5 26.2686L36.1207 26.6267V28.3126L35.5 27.9541V26.2686Z" fill="#A7D1D3"/>
<path d="M35.5 26.2686L36.1207 26.6267V28.3126" fill="#91BBBF"/>
<path d="M36.741 26.2686L36.1211 26.6267V28.3126L36.741 27.9541V26.2686Z" fill="#6B878E"/>
<path d="M36.741 26.2686L36.1211 26.6267V28.3126" fill="#527075"/>
<path d="M36.1207 25.9102L36.7406 26.2687L36.1207 26.6268L35.5 26.2687L36.1207 25.9102Z" fill="#719499"/>
<path d="M36.7406 26.2686L36.1207 26.6267L35.5 26.2686" fill="#5C7E7F"/>
<path d="M36.126 26.5305L35.6641 26.2639L36.126 25.9966L36.5882 26.2639L36.126 26.5305Z" fill="#527075"/>
<path d="M36.125 25.9966L36.5873 26.2639L36.125 26.5305" fill="#425D60"/>
<path d="M35.9297 22.5273L36.1265 22.6407V26.3566L35.9297 26.2429V22.5273Z" fill="#8CADB5"/>
<path d="M36.3218 22.5273L36.1265 22.6407V26.3566L36.3218 26.2429V22.5273ZM35.9297 22.5273V22.8969L36.1254 23.0103V22.64L35.9297 22.5273Z" fill="#7C949B"/>
<path d="M36.125 22.7873V23.0103L36.3203 22.8969V22.5273L36.125 22.64V22.7873Z" fill="#547277"/>
<path d="M26.6328 31.3906L27.2535 31.7488V33.4347L26.6328 33.0762V31.3906Z" fill="#A7D1D3"/>
<path d="M26.6328 31.3906L27.2535 31.7488V33.4347" fill="#91BBBF"/>
<path d="M27.8738 31.3906L27.2539 31.7488V33.4347L27.8738 33.0762V31.3906Z" fill="#6B878E"/>
<path d="M27.8738 31.3906L27.2539 31.7488V33.4347" fill="#527075"/>
<path d="M27.2535 31.0322L27.8734 31.3907L27.2535 31.7489L26.6328 31.3907L27.2535 31.0322Z" fill="#719499"/>
<path d="M27.8734 31.3906L27.2535 31.7488L26.6328 31.3906" fill="#5C7E7F"/>
<path d="M27.2584 31.6524L26.7969 31.3855L27.2584 31.1182L27.7211 31.3855L27.2584 31.6524Z" fill="#527075"/>
<path d="M27.2578 31.1182L27.7205 31.3855L27.2578 31.6524" fill="#425D60"/>
<path d="M27.0625 25.9312L27.2593 26.0449V31.4781L27.0625 31.3644V25.9312Z" fill="#8CADB5"/>
<path d="M27.455 25.9312L27.2593 26.0449V31.4781L27.455 31.3644V25.9312ZM27.0625 25.9312V26.3008L27.2582 26.4145V26.0441L27.0625 25.9312Z" fill="#7C949B"/>
<path d="M27.2578 26.1915V26.4145L27.4535 26.3008V25.9312L27.2578 26.0441V26.1915Z" fill="#547277"/>
<path d="M26.6758 25.5068V25.2842L27.254 25.6183" fill="#444738"/>
<path d="M26.6758 25.2842V25.7295L27.254 26.0644V25.6183L26.6758 25.2842Z" fill="#8CADB5"/>
<path d="M27.254 26.0644V25.6183L26.6758 25.2842" fill="#779AA0"/>
<path d="M27.2539 25.6183V26.0644L27.8314 25.7295V25.2842L27.2539 25.6183Z" fill="#7C949B"/>
<path d="M27.8314 25.5068V25.2842L27.2539 25.6183V26.0644" fill="#6B878E"/>
<path d="M26.6758 25.2843L27.254 25.6185L27.4859 25.4848L27.833 25.2843L27.2551 24.9502L26.6758 25.2843Z" fill="#9EC6CC"/>
<path d="M27.2461 27.834V28.1239L36.7405 22.6419V22.3521L27.2461 27.834Z" fill="#045B5B"/>
<path d="M18.9336 23.0288V23.319L27.2468 28.1238V27.834L18.9336 23.0288Z" fill="#0B7375"/>
<path d="M28.4287 17.5464L18.9336 23.0287L27.2468 27.8339L36.7412 22.3519L28.4287 17.5464Z" fill="#178C7B"/>
<path d="M18.9336 23.0289L27.2468 27.834L36.7412 22.3521" fill="#117A68"/>
<path d="M18.6456 23.2563C18.6324 23.2563 18.6194 23.2529 18.608 23.2463C18.5965 23.2398 18.5869 23.2304 18.5803 23.219C18.5704 23.2017 18.5677 23.1812 18.5729 23.1619C18.578 23.1426 18.5904 23.1262 18.6076 23.116L28.6477 17.3194C28.665 17.3096 28.6856 17.307 28.7048 17.3122C28.7241 17.3175 28.7404 17.3302 28.7503 17.3475C28.76 17.3649 28.7625 17.3854 28.7573 17.4045C28.752 17.4237 28.7395 17.4401 28.7223 17.4501L18.6833 23.2467C18.6718 23.2531 18.6588 23.2564 18.6456 23.2563ZM19.0215 23.473C19.0049 23.4729 18.9888 23.4674 18.9757 23.4572C18.9626 23.4471 18.9532 23.4329 18.9489 23.4169C18.9446 23.4008 18.9457 23.3839 18.952 23.3685C18.9583 23.3532 18.9695 23.3404 18.9838 23.332L29.0236 17.5358C29.0409 17.5261 29.0613 17.5235 29.0805 17.5286C29.0996 17.5337 29.1161 17.5461 29.1262 17.5631C29.1362 17.5804 29.1389 17.601 29.1338 17.6203C29.1286 17.6396 29.1161 17.656 29.0989 17.6661L19.0595 23.4627C19.048 23.4694 19.0348 23.473 19.0215 23.473ZM19.3977 23.6894C19.3846 23.6893 19.3717 23.6858 19.3603 23.6792C19.3489 23.6726 19.3394 23.6631 19.3327 23.6517C19.3229 23.6344 19.3202 23.6139 19.3253 23.5946C19.3305 23.5754 19.3429 23.5589 19.3601 23.5487L29.3995 17.7522C29.4166 17.7441 29.4362 17.7428 29.4543 17.7485C29.4724 17.7541 29.4878 17.7664 29.4972 17.7829C29.5067 17.7993 29.5097 17.8187 29.5055 17.8373C29.5013 17.8558 29.4904 17.8721 29.4748 17.8829L19.4354 23.6791C19.424 23.6858 19.411 23.6893 19.3977 23.6894ZM19.774 23.9058C19.7607 23.9058 19.7478 23.9022 19.7364 23.8955C19.725 23.8887 19.7157 23.879 19.7094 23.8674C19.7044 23.8588 19.7012 23.8494 19.6998 23.8396C19.6985 23.8299 19.6992 23.8199 19.7017 23.8104C19.7042 23.8008 19.7086 23.7919 19.7146 23.7841C19.7206 23.7762 19.7281 23.7697 19.7367 23.7647L29.7761 17.9685C29.7934 17.9588 29.8138 17.9562 29.8329 17.9613C29.8521 17.9664 29.8686 17.9788 29.8787 17.9959C29.8886 18.0132 29.8912 18.0337 29.8861 18.053C29.881 18.0722 29.8685 18.0887 29.8514 18.0989L19.812 23.8954C19.8005 23.9021 19.7873 23.9057 19.774 23.9058ZM20.1502 24.1214C20.1336 24.1216 20.1173 24.1163 20.104 24.1062C20.0907 24.0962 20.0812 24.082 20.0769 24.0659C20.0725 24.0498 20.0737 24.0327 20.0802 24.0174C20.0866 24.002 20.098 23.9892 20.1126 23.9811L30.1519 18.1853C30.1692 18.1754 30.1896 18.1727 30.2088 18.1778C30.228 18.1828 30.2444 18.1952 30.2546 18.2122C30.2647 18.2295 30.2675 18.25 30.2624 18.2693C30.2574 18.2886 30.2449 18.3052 30.2276 18.3152L20.1883 24.1122C20.1765 24.1183 20.1635 24.1215 20.1502 24.1214ZM20.5265 24.3389C20.5133 24.3387 20.5004 24.335 20.4891 24.3283C20.4777 24.3215 20.4683 24.312 20.4619 24.3005C20.4519 24.2833 20.4491 24.2628 20.4542 24.2436C20.4592 24.2244 20.4717 24.2079 20.4888 24.1978L30.5286 18.402C30.5371 18.3971 30.5465 18.3938 30.5563 18.3925C30.5661 18.3912 30.576 18.3918 30.5856 18.3944C30.5951 18.3969 30.604 18.4013 30.6119 18.4073C30.6197 18.4133 30.6263 18.4208 30.6312 18.4293C30.641 18.4466 30.6437 18.4671 30.6386 18.4863C30.6335 18.5055 30.621 18.5219 30.6039 18.532L20.5645 24.3285C20.5528 24.335 20.5398 24.3385 20.5265 24.3389ZM20.9027 24.5545C20.8894 24.5543 20.8764 24.5508 20.8649 24.5441C20.8534 24.5374 20.8438 24.5279 20.837 24.5165C20.8273 24.4991 20.8248 24.4786 20.8301 24.4594C20.8353 24.4402 20.8479 24.4239 20.8651 24.4138L30.9044 18.618C30.913 18.6131 30.9224 18.6099 30.9322 18.6086C30.9419 18.6072 30.9519 18.6079 30.9614 18.6104C30.9709 18.613 30.9799 18.6173 30.9877 18.6233C30.9956 18.6293 31.0021 18.6368 31.0071 18.6453C31.012 18.6539 31.0152 18.6633 31.0165 18.6731C31.0179 18.6829 31.0172 18.6928 31.0147 18.7023C31.0121 18.7119 31.0078 18.7208 31.0018 18.7286C30.9958 18.7365 30.9883 18.743 30.9798 18.748L20.9404 24.5442C20.929 24.551 20.916 24.5545 20.9027 24.5545ZM21.2793 24.7705C21.266 24.7705 21.253 24.767 21.2415 24.7604C21.2299 24.7538 21.2203 24.7443 21.2136 24.7328C21.2039 24.7155 21.2015 24.695 21.2067 24.6758C21.2119 24.6566 21.2245 24.6402 21.2417 24.6302L31.2811 18.8344C31.2896 18.8294 31.299 18.8262 31.3088 18.8249C31.3186 18.8236 31.3285 18.8242 31.3381 18.8267C31.3476 18.8293 31.3565 18.8337 31.3644 18.8397C31.3722 18.8457 31.3788 18.8532 31.3837 18.8617C31.3935 18.879 31.3962 18.8994 31.3911 18.9186C31.386 18.9378 31.3735 18.9543 31.3564 18.9644L21.3163 24.7613C21.305 24.7676 21.2922 24.7707 21.2793 24.7705ZM21.6552 24.9869C21.642 24.9868 21.629 24.9833 21.6175 24.9767C21.6061 24.9701 21.5965 24.9606 21.5899 24.9492C21.5801 24.9319 21.5776 24.9114 21.5828 24.8923C21.588 24.8731 21.6004 24.8567 21.6175 24.8466L31.6569 19.0508C31.6743 19.0409 31.6948 19.0382 31.714 19.0434C31.7333 19.0485 31.7498 19.0609 31.7599 19.0781C31.7698 19.0953 31.7724 19.1158 31.7673 19.135C31.7622 19.1542 31.7497 19.1706 31.7326 19.1807L21.6929 24.9769C21.6814 24.9834 21.6684 24.9868 21.6552 24.9869ZM22.0315 25.2032C22.0183 25.2032 22.0053 25.1998 21.9938 25.1932C21.9824 25.1867 21.9728 25.1773 21.9661 25.166C21.9562 25.1486 21.9536 25.128 21.9589 25.1087C21.9641 25.0894 21.9768 25.0729 21.9942 25.0629L32.0335 19.2664C32.0421 19.2615 32.0516 19.2583 32.0614 19.257C32.0712 19.2558 32.0812 19.2564 32.0907 19.259C32.1003 19.2616 32.1092 19.2661 32.1171 19.2721C32.1249 19.2782 32.1315 19.2857 32.1364 19.2943C32.1413 19.3028 32.1445 19.3123 32.1457 19.3221C32.147 19.3319 32.1463 19.3419 32.1437 19.3515C32.1411 19.361 32.1367 19.3699 32.1307 19.3778C32.1246 19.3856 32.1171 19.3922 32.1085 19.3971L22.0687 25.1933C22.0575 25.2002 22.0446 25.2036 22.0315 25.2032ZM22.4077 25.4196C22.391 25.4198 22.3748 25.4145 22.3615 25.4044C22.3482 25.3944 22.3387 25.3802 22.3343 25.3641C22.33 25.348 22.3312 25.3309 22.3376 25.3156C22.3441 25.3002 22.3555 25.2875 22.37 25.2793L32.4094 19.4835C32.418 19.4786 32.4274 19.4754 32.4371 19.4741C32.4469 19.4728 32.4568 19.4735 32.4664 19.476C32.4759 19.4786 32.4848 19.483 32.4926 19.489C32.5004 19.495 32.507 19.5025 32.5119 19.511C32.5168 19.5195 32.52 19.529 32.5213 19.5387C32.5226 19.5485 32.5219 19.5584 32.5193 19.5679C32.5168 19.5774 32.5124 19.5864 32.5064 19.5942C32.5004 19.602 32.4929 19.6085 32.4844 19.6135L22.445 25.4096C22.4337 25.4162 22.4208 25.4197 22.4077 25.4196ZM22.7843 25.6364C22.771 25.6363 22.758 25.6328 22.7465 25.6262C22.735 25.6196 22.7254 25.6101 22.7186 25.5987C22.7087 25.5814 22.7061 25.5609 22.7112 25.5416C22.7163 25.5223 22.7288 25.5058 22.7459 25.4957L32.7864 19.6991C32.8038 19.6895 32.8243 19.6871 32.8434 19.6924C32.8626 19.6976 32.8789 19.7101 32.8891 19.7272C32.8987 19.7446 32.9012 19.765 32.896 19.7842C32.8907 19.8034 32.8782 19.8198 32.861 19.8298L22.8216 25.626C22.8103 25.6326 22.7974 25.6362 22.7843 25.6364ZM23.1602 25.8527C23.1435 25.8529 23.1273 25.8475 23.1141 25.8374C23.1008 25.8273 23.0912 25.8131 23.0869 25.7971C23.0825 25.781 23.0837 25.7639 23.09 25.7485C23.0964 25.7332 23.1077 25.7203 23.1222 25.712L33.1619 19.9162C33.1792 19.9064 33.1997 19.9037 33.219 19.9088C33.2383 19.9139 33.2548 19.9264 33.2649 19.9436C33.2746 19.961 33.2771 19.9815 33.2719 20.0008C33.2666 20.02 33.2541 20.0365 33.2369 20.0466L23.1979 25.8424C23.1864 25.8491 23.1734 25.8526 23.1602 25.8527ZM23.5364 26.0691C23.5232 26.069 23.5102 26.0655 23.4988 26.0589C23.4873 26.0523 23.4778 26.0429 23.4711 26.0314C23.4612 26.0141 23.4586 25.9936 23.4637 25.9743C23.4688 25.9551 23.4813 25.9386 23.4984 25.9284L33.5385 20.1319C33.5559 20.1222 33.5764 20.1197 33.5956 20.125C33.6148 20.1302 33.6311 20.1428 33.6412 20.1599C33.6509 20.1773 33.6534 20.1977 33.6482 20.2169C33.6431 20.2361 33.6306 20.2525 33.6135 20.2626L23.5741 26.0588C23.5626 26.0654 23.5497 26.0689 23.5364 26.0691ZM23.9131 26.2851C23.8997 26.2852 23.8866 26.2817 23.8751 26.2749C23.8636 26.2682 23.8541 26.2584 23.8477 26.2467C23.8427 26.2382 23.8395 26.2287 23.8382 26.219C23.8369 26.2092 23.8375 26.1992 23.84 26.1897C23.8426 26.1802 23.847 26.1712 23.853 26.1634C23.859 26.1556 23.8665 26.149 23.875 26.144L33.9144 20.3482C33.9317 20.3384 33.9522 20.3358 33.9714 20.341C33.9906 20.3462 34.007 20.3587 34.0171 20.3759C34.0269 20.3932 34.0295 20.4136 34.0244 20.4328C34.0193 20.4521 34.0068 20.4685 33.9897 20.4786L23.9503 26.2748C23.9391 26.2815 23.9262 26.2851 23.9131 26.2851ZM24.2893 26.5015C24.2727 26.5015 24.2566 26.4961 24.2434 26.4861C24.2302 26.4761 24.2207 26.462 24.2163 26.446C24.212 26.43 24.213 26.4131 24.2192 26.3977C24.2255 26.3824 24.2366 26.3695 24.2509 26.3612L34.2903 20.5646C34.3075 20.5555 34.3276 20.5534 34.3463 20.5588C34.365 20.5642 34.3809 20.5766 34.3907 20.5935C34.4004 20.6104 34.4033 20.6304 34.3986 20.6493C34.3939 20.6682 34.3821 20.6846 34.3656 20.6949L24.327 26.4915C24.3154 26.4979 24.3025 26.5014 24.2893 26.5015ZM24.6652 26.7178C24.6519 26.7179 24.6388 26.7144 24.6274 26.7076C24.6159 26.7009 24.6065 26.6911 24.6002 26.6794C24.5952 26.6709 24.592 26.6615 24.5907 26.6517C24.5894 26.6419 24.59 26.632 24.5925 26.6224C24.5951 26.6129 24.5995 26.604 24.6055 26.5961C24.6115 26.5883 24.619 26.5817 24.6275 26.5768L34.6669 20.781C34.6842 20.7711 34.7046 20.7685 34.7238 20.7736C34.743 20.7787 34.7594 20.7912 34.7695 20.8083C34.7795 20.8255 34.7822 20.846 34.7771 20.8653C34.7719 20.8845 34.7594 20.9009 34.7422 20.9109L24.7028 26.7075C24.6915 26.7145 24.6785 26.7181 24.6652 26.7178ZM25.0411 26.9342C25.0245 26.9341 25.0085 26.9286 24.9955 26.9185C24.9824 26.9084 24.973 26.8943 24.9687 26.8784C24.9644 26.8625 24.9655 26.8456 24.9718 26.8303C24.978 26.815 24.9892 26.8022 25.0034 26.7939L35.0428 20.9973C35.0601 20.9874 35.0807 20.9848 35.1 20.99C35.1193 20.9951 35.1358 21.0078 35.1458 21.025C35.1556 21.0424 35.1583 21.0629 35.1532 21.0821C35.1481 21.1014 35.1356 21.1179 35.1185 21.128L25.0791 26.9242C25.0675 26.9308 25.0544 26.9342 25.0411 26.9342ZM25.4177 27.1506C25.4011 27.1505 25.385 27.1449 25.3719 27.1348C25.3588 27.1246 25.3493 27.1104 25.3451 27.0944C25.3408 27.0784 25.3419 27.0614 25.3482 27.0461C25.3545 27.0307 25.3657 27.0179 25.38 27.0095L35.4194 21.2137C35.4366 21.2038 35.4571 21.2011 35.4764 21.2062C35.4956 21.2113 35.512 21.2238 35.522 21.241C35.532 21.2583 35.5347 21.2788 35.5296 21.298C35.5244 21.3172 35.5119 21.3337 35.4947 21.3437L25.4553 27.1402C25.4439 27.147 25.4309 27.1506 25.4177 27.1506ZM25.7935 27.3662C25.7804 27.3662 25.7674 27.3627 25.756 27.3562C25.7445 27.3496 25.7349 27.3402 25.7282 27.3289C25.7185 27.3115 25.7159 27.291 25.7211 27.2718C25.7263 27.2525 25.7388 27.2361 25.7559 27.2259L35.7956 21.4301C35.813 21.4202 35.8335 21.4176 35.8527 21.4227C35.872 21.4278 35.8885 21.4403 35.8987 21.4574C35.9085 21.4748 35.9112 21.4953 35.9061 21.5147C35.901 21.534 35.8885 21.5506 35.8713 21.5608L25.8312 27.357C25.8197 27.3633 25.8067 27.3665 25.7935 27.3662ZM26.1702 27.5833C26.1568 27.5832 26.1438 27.5797 26.1323 27.573C26.1207 27.5663 26.1112 27.5568 26.1044 27.5453C26.0947 27.5278 26.0923 27.5073 26.0975 27.4881C26.1027 27.4688 26.1153 27.4524 26.1325 27.4423L36.1719 21.6468C36.1804 21.6419 36.1898 21.6387 36.1995 21.6373C36.2093 21.636 36.2192 21.6366 36.2287 21.6392C36.2382 21.6417 36.2472 21.6461 36.255 21.652C36.2628 21.658 36.2694 21.6654 36.2743 21.674C36.2793 21.6825 36.2825 21.6919 36.2838 21.7016C36.2851 21.7114 36.2845 21.7213 36.282 21.7308C36.2795 21.7403 36.2751 21.7492 36.2691 21.7571C36.2632 21.7649 36.2557 21.7715 36.2472 21.7764L26.2075 27.5733C26.1961 27.5798 26.1832 27.5832 26.1702 27.5833ZM26.546 27.7993C26.5328 27.7992 26.5199 27.7957 26.5084 27.7891C26.497 27.7825 26.4874 27.773 26.4807 27.7617C26.471 27.7443 26.4684 27.7238 26.4736 27.7045C26.4788 27.6853 26.4912 27.6688 26.5084 27.6586L36.5478 21.8628C36.5651 21.853 36.5856 21.8503 36.6049 21.8554C36.6241 21.8605 36.6406 21.873 36.6508 21.8901C36.6607 21.9074 36.6634 21.9279 36.6583 21.9471C36.6532 21.9663 36.6406 21.9828 36.6235 21.9928L26.5837 27.7893C26.5723 27.7961 26.5593 27.7995 26.546 27.7993ZM26.9227 28.016C26.9094 28.0158 26.8963 28.0122 26.8848 28.0056C26.8733 27.9989 26.8637 27.9894 26.8569 27.978C26.8471 27.9606 26.8446 27.94 26.8498 27.9208C26.8551 27.9015 26.8677 27.885 26.885 27.875L36.9244 22.0792C36.9416 22.0693 36.9621 22.0666 36.9813 22.0717C37.0006 22.0768 37.017 22.0893 37.027 22.1065C37.0369 22.1238 37.0396 22.1443 37.0344 22.1636C37.0292 22.1828 37.0166 22.1992 36.9993 22.2092L26.9599 28.0061C26.9486 28.0125 26.9357 28.016 26.9227 28.016Z" fill="#1DB59B"/>
<path d="M27.4375 22.6776L36.2813 17.5723V22.4084L27.4375 27.5145V22.6776Z" fill="#BAE4E5"/>
<path d="M27.4375 27.5145V22.6776L36.2813 17.5723" fill="#A4E0DE"/>
<path d="M27.8984 22.9535L35.8184 18.3828V22.1401L27.8984 26.7101V22.9535Z" fill="#80C1BB"/>
<path d="M27.8984 26.7101V22.9535L35.8184 18.3828" fill="#7ABCB8"/>
<path d="M26.9727 22.4081L35.8165 17.3027L36.2817 17.5719L27.4379 22.6773L26.9727 22.4081Z" fill="#BAE4E5"/>
<path d="M26.9727 22.4082L27.4379 22.6774V27.5143L26.9727 27.2459V22.4082Z" fill="#7ABCB8"/>
<path d="M28.6875 23.8056L29.3108 23.4459V22.6333L30.1024 22.1758V22.9888L30.6817 22.6543V23.7291L30.1024 24.0633V24.8767L29.3108 25.3338V24.5204L28.6875 24.8808V23.8056Z" fill="#0B7375"/>
<path d="M6.38672 24.8078L7.60813 25.5131V22.5308L6.38672 21.8252V24.8078Z" fill="#3AA3D8"/>
<path d="M6.51172 24.7405L7.6076 25.3734V22.5307L6.51172 21.8975V24.7405Z" fill="#2585CC"/>
<path d="M7.6076 25.3734V22.5307L6.51172 21.8975" fill="#1676BF"/>
<path d="M7.60835 22.5851C7.5989 22.5848 7.58966 22.5823 7.5814 22.5777L6.35924 21.8721C6.34688 21.8649 6.33782 21.8532 6.33402 21.8395C6.33022 21.8257 6.33198 21.8111 6.33893 21.7986C6.34626 21.7863 6.3581 21.7772 6.37194 21.7734C6.38578 21.7697 6.40056 21.7714 6.41315 21.7783L7.63567 22.4839C7.64598 22.4899 7.65402 22.4991 7.65855 22.5102C7.66308 22.5212 7.66385 22.5334 7.66074 22.5449C7.65763 22.5564 7.65081 22.5666 7.64134 22.5739C7.63187 22.5811 7.62028 22.5851 7.60835 22.5851ZM7.60835 23.9881C7.59893 23.988 7.58969 23.9856 7.5814 23.9811L6.35924 23.2755C6.34685 23.2683 6.33779 23.2566 6.33399 23.2427C6.33019 23.2289 6.33197 23.2142 6.33893 23.2017C6.34645 23.1895 6.35831 23.1807 6.3721 23.177C6.38588 23.1733 6.40056 23.175 6.41315 23.1817L7.63567 23.887C7.66115 23.9017 7.67038 23.9353 7.65561 23.9608C7.65091 23.9692 7.64404 23.9761 7.63573 23.9809C7.62741 23.9858 7.61795 23.9882 7.60835 23.9881ZM7.60835 24.2617C7.59882 24.2617 7.58949 24.259 7.5814 24.254L6.35924 23.5495C6.3469 23.5422 6.33789 23.5303 6.3341 23.5165C6.33031 23.5026 6.33204 23.4879 6.33893 23.4753C6.34626 23.4629 6.35812 23.4539 6.37198 23.4502C6.38585 23.4465 6.40062 23.4483 6.41315 23.4553L7.63567 24.1598C7.64407 24.1598 7.65235 24.1617 7.65988 24.1654C7.66741 24.1691 7.67399 24.1745 7.67911 24.1812C7.68422 24.1878 7.68773 24.1956 7.68937 24.2038C7.69102 24.212 7.69074 24.2205 7.68857 24.2286C7.68639 24.2367 7.68238 24.2442 7.67684 24.2505C7.67131 24.2568 7.66439 24.2618 7.65663 24.265C7.64888 24.2682 7.64049 24.2696 7.63211 24.269C7.62374 24.2684 7.61561 24.2659 7.60835 24.2617ZM7.60835 24.5346C7.59891 24.5346 7.58962 24.5322 7.5814 24.5276L6.35924 23.8223C6.34685 23.8152 6.33779 23.8034 6.33399 23.7896C6.33019 23.7758 6.33197 23.761 6.33893 23.7485C6.34626 23.7362 6.3581 23.7271 6.37194 23.7234C6.38578 23.7196 6.40056 23.7213 6.41315 23.7282L7.63567 24.4338C7.66115 24.4482 7.67038 24.4818 7.65561 24.508C7.65076 24.5162 7.64383 24.523 7.63554 24.5276C7.62724 24.5323 7.61787 24.5347 7.60835 24.5346ZM7.60835 24.8086C7.59885 24.8083 7.58957 24.8057 7.5814 24.8008L6.35924 24.0959C6.3469 24.0886 6.33789 24.0768 6.3341 24.0629C6.33031 24.0491 6.33204 24.0343 6.33893 24.0217C6.34645 24.0096 6.35831 24.0008 6.3721 23.9971C6.38588 23.9934 6.40056 23.9951 6.41315 24.0018L7.63567 24.707C7.66115 24.7214 7.67038 24.755 7.65561 24.7812C7.65076 24.7895 7.64386 24.7963 7.63558 24.8011C7.6273 24.8059 7.61792 24.8085 7.60835 24.8086ZM7.60835 25.0814C7.59896 25.0814 7.58972 25.0791 7.5814 25.0748L6.35961 24.3692C6.34722 24.362 6.33816 24.3502 6.33436 24.3364C6.33056 24.3226 6.33234 24.3078 6.3393 24.2953C6.34669 24.2831 6.35855 24.2741 6.37239 24.2704C6.38623 24.2667 6.40097 24.2685 6.41352 24.2754L7.63604 24.9803C7.64832 24.9876 7.65726 24.9995 7.66098 25.0133C7.6647 25.0272 7.6629 25.0419 7.65598 25.0545C7.65098 25.0626 7.64398 25.0694 7.63565 25.0741C7.62732 25.0788 7.61792 25.0813 7.60835 25.0814ZM7.60835 25.355C7.59885 25.3548 7.58957 25.3521 7.5814 25.3473L6.35924 24.6424C6.3469 24.6351 6.33789 24.6232 6.3341 24.6094C6.33031 24.5956 6.33204 24.5808 6.33893 24.5682C6.34651 24.5561 6.35834 24.5473 6.37209 24.5436C6.38583 24.5398 6.40049 24.5414 6.41315 24.5479L7.63567 25.2535C7.64617 25.2594 7.65439 25.2687 7.65905 25.2798C7.6637 25.2909 7.66453 25.3032 7.6614 25.3149C7.65827 25.3265 7.65136 25.3368 7.64175 25.344C7.63215 25.3513 7.6204 25.3552 7.60835 25.355Z" fill="#A6D9ED"/>
<path d="M9.08984 26.3718L10.312 27.0763V24.094L9.08984 23.3892V26.3718Z" fill="#3AA3D8"/>
<path d="M9.21484 26.3041L10.3107 26.9366V24.0943L9.21484 23.4614V26.3041Z" fill="#2585CC"/>
<path d="M10.3107 26.9366V24.0943L9.21484 23.4614" fill="#1676BF"/>
<path d="M10.3112 24.1482C10.3019 24.148 10.2927 24.1454 10.2847 24.1405L9.06214 23.4356C9.04979 23.4283 9.04079 23.4164 9.03707 23.4026C9.03334 23.3887 9.03518 23.3739 9.0422 23.3614C9.04971 23.3492 9.0616 23.3404 9.07541 23.3368C9.08922 23.3332 9.1039 23.335 9.11642 23.3418L10.3386 24.0467C10.3644 24.0615 10.3736 24.0947 10.3585 24.1205C10.3539 24.129 10.347 24.1361 10.3387 24.1409C10.3304 24.1458 10.3209 24.1483 10.3112 24.1482ZM10.3112 25.552C10.3019 25.5519 10.2927 25.5492 10.2847 25.5443L9.06214 24.8402C9.04977 24.8328 9.04076 24.8208 9.03704 24.8069C9.03331 24.793 9.03517 24.7782 9.0422 24.7656C9.04959 24.7533 9.06145 24.7444 9.07529 24.7406C9.08913 24.7369 9.10387 24.7387 9.11642 24.7456L10.3386 25.4505C10.3491 25.4564 10.3573 25.4657 10.3619 25.4768C10.3666 25.4879 10.3674 25.5002 10.3643 25.5119C10.3612 25.5235 10.3543 25.5338 10.3447 25.541C10.335 25.5483 10.3233 25.5522 10.3112 25.552ZM10.3112 25.8249C10.3019 25.8248 10.2928 25.8224 10.2847 25.8179L9.06214 25.1123C9.05061 25.1047 9.04242 25.0929 9.03926 25.0794C9.0361 25.066 9.03819 25.0518 9.04512 25.0398C9.05205 25.0279 9.06329 25.019 9.07654 25.015C9.08979 25.0111 9.10405 25.0123 9.11642 25.0185L10.3386 25.7234C10.3488 25.7295 10.3567 25.7387 10.3612 25.7498C10.3656 25.7608 10.3664 25.773 10.3633 25.7845C10.3602 25.7959 10.3534 25.8061 10.3441 25.8134C10.3347 25.8207 10.3231 25.8247 10.3112 25.8249ZM10.3112 26.0985C10.3019 26.0983 10.2928 26.0957 10.2847 26.0911L9.06214 25.3859C9.04979 25.3786 9.04079 25.3667 9.03707 25.3528C9.03334 25.339 9.03518 25.3242 9.0422 25.3117C9.04971 25.2995 9.0616 25.2907 9.07541 25.2871C9.08922 25.2834 9.1039 25.2852 9.11642 25.2921L10.3386 25.997C10.3644 26.0117 10.3736 26.0453 10.3585 26.0708C10.3538 26.0792 10.3469 26.0861 10.3386 26.091C10.3303 26.0959 10.3209 26.0985 10.3112 26.0985ZM10.3112 26.3717C10.3019 26.3719 10.2926 26.3693 10.2847 26.3643L9.06214 25.6595C9.04982 25.6522 9.04083 25.6404 9.0371 25.6266C9.03337 25.6128 9.0352 25.5981 9.0422 25.5856C9.0494 25.5732 9.06123 25.564 9.07513 25.5602C9.08903 25.5564 9.10387 25.5582 9.11642 25.5653L10.3386 26.2702C10.3644 26.2853 10.3736 26.3189 10.3585 26.3448C10.3535 26.3529 10.3466 26.3596 10.3383 26.3643C10.3301 26.369 10.3208 26.3716 10.3112 26.3717ZM10.3112 26.645C10.3019 26.6449 10.2927 26.6424 10.2847 26.6376L9.06214 25.9327C9.04986 25.9253 9.04093 25.9135 9.03721 25.8996C9.03349 25.8858 9.03528 25.871 9.0422 25.8585C9.04966 25.8463 9.06149 25.8374 9.07528 25.8336C9.08908 25.8299 9.10379 25.8315 9.11642 25.8382L10.3386 26.5438C10.3644 26.5582 10.3736 26.5918 10.3585 26.6173C10.3539 26.6257 10.347 26.6328 10.3387 26.6377C10.3304 26.6425 10.3209 26.6451 10.3112 26.645ZM10.3112 26.9182C10.3019 26.9181 10.2927 26.9156 10.2847 26.9108L9.06214 26.2059C9.04979 26.1986 9.04079 26.1868 9.03707 26.1729C9.03334 26.159 9.03518 26.1443 9.0422 26.1317C9.04945 26.1193 9.06134 26.1102 9.07526 26.1066C9.08918 26.1029 9.10398 26.1049 9.11642 26.1122L10.3386 26.8163C10.3644 26.8314 10.3736 26.865 10.3585 26.8909C10.3537 26.8992 10.3469 26.9061 10.3386 26.9109C10.3303 26.9157 10.3208 26.9182 10.3112 26.9182Z" fill="#A6D9ED"/>
<path d="M11.793 27.935L13.0151 28.6403V25.658L11.793 24.9531V27.935Z" fill="#3AA3D8"/>
<path d="M11.918 27.8682L13.0138 28.5004V25.658L11.918 25.0244V27.8682Z" fill="#2585CC"/>
<path d="M13.0138 28.5004V25.658L11.918 25.0244" fill="#1676BF"/>
<path d="M13.0173 25.7122C13.0077 25.7123 12.9983 25.7097 12.99 25.7048L11.7682 25.0003C11.7621 24.9968 11.7566 24.992 11.7523 24.9864C11.7479 24.9807 11.7447 24.9743 11.7429 24.9674C11.741 24.9605 11.7406 24.9533 11.7415 24.9462C11.7424 24.9391 11.7447 24.9323 11.7483 24.9261C11.7519 24.9199 11.7566 24.9145 11.7623 24.9102C11.7679 24.9058 11.7744 24.9026 11.7813 24.9008C11.7882 24.8989 11.7954 24.8985 11.8024 24.8994C11.8095 24.9003 11.8163 24.9026 11.8225 24.9062L13.0443 25.611C13.0705 25.6262 13.0797 25.6591 13.0646 25.6853C13.0597 25.6934 13.0528 25.7002 13.0445 25.7049C13.0362 25.7097 13.0269 25.7122 13.0173 25.7122ZM13.0173 27.1157C13.0078 27.1156 12.9985 27.1133 12.99 27.109L11.7682 26.4034C11.7621 26.3999 11.7566 26.3952 11.7523 26.3896C11.7479 26.3839 11.7448 26.3775 11.7429 26.3706C11.741 26.3638 11.7406 26.3566 11.7415 26.3496C11.7424 26.3425 11.7447 26.3357 11.7483 26.3296C11.7556 26.3172 11.7675 26.3082 11.7813 26.3044C11.7951 26.3006 11.8099 26.3024 11.8225 26.3093L13.0443 27.0145C13.0505 27.018 13.056 27.0227 13.0604 27.0284C13.0648 27.034 13.068 27.0405 13.0699 27.0474C13.0718 27.0543 13.0723 27.0615 13.0714 27.0686C13.0705 27.0757 13.0682 27.0825 13.0646 27.0887C13.0596 27.0968 13.0527 27.1035 13.0444 27.1083C13.0362 27.113 13.0269 27.1155 13.0173 27.1157ZM13.0173 27.3889C13.0078 27.3888 12.9984 27.3862 12.99 27.3815L11.7682 26.6767C11.762 26.6731 11.7566 26.6683 11.7523 26.6627C11.7479 26.657 11.7447 26.6506 11.7429 26.6437C11.741 26.6368 11.7405 26.6296 11.7415 26.6225C11.7424 26.6154 11.7447 26.6086 11.7483 26.6024C11.7558 26.5903 11.7676 26.5815 11.7814 26.5777C11.7952 26.5739 11.8099 26.5755 11.8225 26.5821L13.0443 27.2877C13.0705 27.3021 13.0797 27.3357 13.0646 27.3616C13.0598 27.3699 13.053 27.3768 13.0447 27.3816C13.0364 27.3864 13.0269 27.3889 13.0173 27.3889ZM13.0173 27.6625C13.0077 27.6625 12.9983 27.66 12.99 27.6551L11.7682 26.9499C11.7616 26.9466 11.7558 26.9419 11.751 26.9363C11.7462 26.9306 11.7427 26.924 11.7406 26.9169C11.7384 26.9098 11.7378 26.9024 11.7387 26.895C11.7395 26.8877 11.7419 26.8806 11.7456 26.8742C11.7493 26.8678 11.7543 26.8622 11.7602 26.8578C11.7662 26.8534 11.7729 26.8502 11.7801 26.8485C11.7874 26.8468 11.7948 26.8466 11.8021 26.8479C11.8094 26.8492 11.8163 26.852 11.8225 26.8561L13.0443 27.5606C13.0547 27.5666 13.0628 27.5759 13.0673 27.5869C13.0719 27.598 13.0728 27.6102 13.0697 27.6218C13.0666 27.6334 13.0599 27.6437 13.0504 27.651C13.0409 27.6584 13.0293 27.6624 13.0173 27.6625ZM13.0173 27.9357C13.0078 27.9354 12.9984 27.9329 12.99 27.9283L11.7682 27.2227C11.7621 27.2192 11.7566 27.2145 11.7523 27.2089C11.7479 27.2033 11.7448 27.1968 11.7429 27.19C11.741 27.1831 11.7406 27.1759 11.7415 27.1689C11.7424 27.1618 11.7447 27.155 11.7483 27.1489C11.7557 27.1366 11.7675 27.1277 11.7813 27.1239C11.7952 27.1201 11.8099 27.1218 11.8225 27.1286L13.0443 27.8342C13.0548 27.8401 13.063 27.8493 13.0676 27.8604C13.0723 27.8715 13.0732 27.8838 13.0701 27.8954C13.067 27.907 13.0601 27.9173 13.0506 27.9246C13.0411 27.9319 13.0294 27.9358 13.0173 27.9357ZM13.0173 28.209C13.0077 28.2087 12.9983 28.206 12.99 28.2012L11.7682 27.4971C11.7558 27.4898 11.7468 27.478 11.743 27.4641C11.7393 27.4502 11.7412 27.4354 11.7483 27.4229C11.7556 27.4104 11.7674 27.4014 11.7813 27.3976C11.7952 27.3939 11.81 27.3958 11.8225 27.4029L13.0443 28.1074C13.0548 28.1133 13.063 28.1225 13.0676 28.1336C13.0723 28.1447 13.0732 28.157 13.0701 28.1686C13.067 28.1802 13.0601 28.1905 13.0506 28.1978C13.0411 28.2051 13.0294 28.209 13.0173 28.209ZM13.0173 28.4822C13.0078 28.4822 12.9984 28.4798 12.99 28.4752L11.7682 27.7696C11.7621 27.7661 11.7567 27.7614 11.7523 27.7558C11.748 27.7502 11.7448 27.7438 11.7429 27.737C11.7411 27.7302 11.7406 27.723 11.7415 27.716C11.7424 27.709 11.7447 27.7022 11.7483 27.6961C11.7556 27.6838 11.7675 27.6747 11.7813 27.6709C11.7951 27.6672 11.8099 27.6689 11.8225 27.6758L13.0443 28.3814C13.0705 28.3958 13.0797 28.4294 13.0646 28.4549C13.0598 28.4631 13.0529 28.47 13.0446 28.4748C13.0363 28.4795 13.0269 28.4821 13.0173 28.4822Z" fill="#A6D9ED"/>
</svg>
