<svg width="46" height="46" viewBox="0 0 46 46" fill="none" xmlns="http://www.w3.org/2000/svg">
<path opacity="0.4" d="M40.7279 17.5376C36.3004 10.5801 29.822 6.57422 22.9987 6.57422C19.587 6.57422 16.2712 7.57089 13.2429 9.43005C10.2145 11.3084 7.49286 14.0492 5.26953 17.5376C3.35286 20.5467 3.35286 25.4342 5.26953 28.4434C9.69703 35.4201 16.1754 39.4067 22.9987 39.4067C26.4104 39.4067 29.7262 38.4101 32.7545 36.5509C35.7829 34.6726 38.5045 31.9317 40.7279 28.4434C42.6445 25.4534 42.6445 20.5467 40.7279 17.5376ZM22.9987 30.7434C18.7054 30.7434 15.2554 27.2742 15.2554 23.0001C15.2554 18.7259 18.7054 15.2567 22.9987 15.2567C27.292 15.2567 30.742 18.7259 30.742 23.0001C30.742 27.2742 27.292 30.7434 22.9987 30.7434Z" fill="#046F6D"/>
<path d="M23.0016 17.5183C19.9924 17.5183 17.5391 19.9716 17.5391 23C17.5391 26.0091 19.9924 28.4625 23.0016 28.4625C26.0107 28.4625 28.4832 26.0091 28.4832 23C28.4832 19.9908 26.0107 17.5183 23.0016 17.5183Z" fill="#046F6D"/>
</svg>
