<svg width="38" height="44" viewBox="0 0 38 44" fill="none" xmlns="http://www.w3.org/2000/svg">
<g clip-path="url(#clip0_1176_40579)">
<path d="M37.232 31.1311C36.6285 32.3005 35.8363 31.961 34.9687 31.4329C29.9516 28.5283 24.9345 25.6614 19.9552 22.719C18.9744 22.1155 18.2577 22.1532 17.2769 22.719C12.3352 25.6614 7.35587 28.5283 2.37651 31.3574C1.65979 31.7724 0.867616 32.5646 0 31.5083C0.301779 26.0009 0.0377224 20.4557 0.15089 14.9482C0.188612 13.7034 -0.0754448 12.4585 0.301779 11.2137C3.50819 8.83716 7.12954 7.10193 10.5623 5.06492C12.1843 4.08414 13.8441 3.10335 15.5039 2.16029C18.5217 0.425061 19.7288 0.500506 22.4826 2.57524C24.3687 4.00869 26.5943 4.91403 28.5936 6.19659C31.3851 7.96955 34.5537 9.10122 36.968 11.4777C37.3452 13.8542 37.0434 16.2308 37.1189 18.5695C37.1943 22.7945 36.9302 26.9816 37.232 31.1311Z" fill="white"/>
<path d="M31.4991 35.4691C31.3482 36.1104 30.971 36.5253 30.3675 36.8648C26.8216 38.8641 23.2757 40.9011 19.7675 42.9759C18.9753 43.4285 18.334 43.504 17.5041 43.0136C13.8828 40.9011 10.2237 38.8264 6.60234 36.7139C5.20661 35.884 5.20661 35.205 6.56462 34.4129C10.2237 32.225 13.9205 30.1502 17.6173 28C18.2586 27.6228 18.8621 27.5474 19.5411 27.9623C23.1625 30.0748 26.7838 32.1872 30.4429 34.262C30.971 34.5638 31.3482 34.9033 31.4991 35.4691Z" fill="#D9D9D9"/>
</g>
<defs>
<clipPath id="clip0_1176_40579">
<rect width="37.232" height="42.4" fill="white" transform="translate(0 0.953125)"/>
</clipPath>
</defs>
</svg>
